<svg xmlns="http://www.w3.org/2000/svg" xmlns:xlink="http://www.w3.org/1999/xlink" width="1748" height="600" viewBox="0 0 1748 600">
  <defs>
    <clipPath id="clip-path">
      <rect id="長方形_9973" data-name="長方形 9973" width="1748" height="600" transform="translate(105 649)" fill="#5dacdc"/>
    </clipPath>
  </defs>
  <g id="雲_右下_" data-name="雲（右下）" transform="translate(-105 -649)" clip-path="url(#clip-path)">
    <g id="rain-black-cloud-with-raindrops-falling-down" transform="translate(1461 1167)">
      <g id="グループ_10675" data-name="グループ 10675" transform="translate(0 0)">
        <path id="パス_18978" data-name="パス 18978" d="M36.735,57.277a56.744,56.744,0,0,1,93.021-36.735,50.74,50.74,0,0,1,89.758,20.189,50.867,50.867,0,1,1-20.531,98.521A50.7,50.7,0,0,1,129.719,151.9a50.759,50.759,0,0,1-81.5-14.809,39.933,39.933,0,0,1-7.709.776,40.376,40.376,0,0,1-3.771-80.588Z" transform="translate(0 -0.788)" fill="#e7efef"/>
      </g>
    </g>
  </g>
</svg>
