<svg xmlns="http://www.w3.org/2000/svg" xmlns:xlink="http://www.w3.org/1999/xlink" width="1748" height="600" viewBox="0 0 1748 600">
  <defs>
    <clipPath id="clip-path">
      <rect id="長方形_9976" data-name="長方形 9976" width="1748" height="600" transform="translate(105 649)" fill="#fff"/>
    </clipPath>
  </defs>
  <g id="雲_左上下_" data-name="雲（左上下）" transform="translate(-105 -649)" clip-path="url(#clip-path)">
    <g id="rain-black-cloud-with-raindrops-falling-down" transform="translate(233 702)">
      <g id="グループ_10679" data-name="グループ 10679">
        <path id="パス_18982" data-name="パス 18982" d="M18.257,28.862a28.2,28.2,0,0,1,46.23-18.257,25.217,25.217,0,0,1,44.608,10.033A25.28,25.28,0,1,1,98.891,69.6a25.2,25.2,0,0,1-34.423,6.285,25.226,25.226,0,0,1-40.506-7.36,19.846,19.846,0,0,1-3.831.386,20.066,20.066,0,0,1-1.874-40.051Z" transform="translate(0 -0.788)" fill="#e7efef"/>
      </g>
    </g>
  </g>
</svg>
