<svg xmlns="http://www.w3.org/2000/svg" xmlns:xlink="http://www.w3.org/1999/xlink" width="1748" height="600" viewBox="0 0 1748 600">
  <defs>
    <clipPath id="clip-path">
      <rect id="長方形_9972" data-name="長方形 9972" width="1748" height="600" transform="translate(105 649)" fill="#fff"/>
    </clipPath>
  </defs>
  <g id="雲_中央大_" data-name="雲（中央大）" transform="translate(-105 -649)" clip-path="url(#clip-path)">
    <g id="rain-black-cloud-with-raindrops-falling-down" transform="translate(866.365 941.212)">
      <g id="グループ_10677" data-name="グループ 10677" transform="translate(0 0.788)">
        <path id="パス_18980" data-name="パス 18980" d="M179.93,44.929a44.34,44.34,0,0,0-72.687-28.705A39.648,39.648,0,0,0,37.106,32a39.748,39.748,0,1,0,16.043,76.985,39.617,39.617,0,0,0,54.123,9.881,39.663,39.663,0,0,0,63.687-11.572,31.2,31.2,0,0,0,6.024.607,31.55,31.55,0,0,0,2.947-62.972Z" transform="translate(0 -0.788)" fill="#e7efef"/>
      </g>
    </g>
  </g>
</svg>
