<svg xmlns="http://www.w3.org/2000/svg" width="287.946" height="221.043" viewBox="0 0 287.946 221.043">
  <g id="img_main_cta_pc.svg" transform="translate(-1034.437 -837.006)">
    <g id="グループ_10186" data-name="グループ 10186" transform="translate(-106.438 -1648.844)">
      <rect id="長方形_9759" data-name="長方形 9759" width="75.291" height="4.196" transform="translate(1290.923 2623.902) rotate(90)" fill="#161616"/>
      <rect id="長方形_9760" data-name="長方形 9760" width="1.996" height="75.291" transform="translate(1288.928 2623.902)" fill="#353535"/>
    </g>
    <g id="グループ_10187" data-name="グループ 10187" transform="translate(-106.438 -1648.844)">
      <rect id="長方形_9761" data-name="長方形 9761" width="75.291" height="4.196" transform="translate(1290.923 2623.902) rotate(90)" fill="#7f523e"/>
      <rect id="長方形_9762" data-name="長方形 9762" width="1.996" height="75.291" transform="translate(1288.928 2623.902)" opacity="0.3"/>
    </g>
    <path id="パス_17825" data-name="パス 17825" d="M1174.361,2625.382a.923.923,0,0,1-.018-1.846,38.63,38.63,0,0,0,5.378-.512.923.923,0,1,1,.3,1.821,40.4,40.4,0,0,1-5.637.537Zm-5.511-.382a.986.986,0,0,1-.155-.013,23.455,23.455,0,0,1-5.513-1.622.923.923,0,1,1,.743-1.69,21.61,21.61,0,0,0,5.078,1.492.923.923,0,0,1-.153,1.833Zm16.424-1.341a.924.924,0,0,1-.246-1.813c1.675-.462,3.422-1.028,5.194-1.68a.923.923,0,1,1,.638,1.732c-1.82.67-3.617,1.251-5.34,1.728A.973.973,0,0,1,1185.273,2623.66Zm10.394-3.8a.924.924,0,0,1-.377-1.767c1.611-.718,3.275-1.518,4.947-2.375a.923.923,0,1,1,.843,1.643c-1.7.872-3.4,1.686-5.037,2.417A.921.921,0,0,1,1195.668,2619.863Zm-28.788-33.97a.924.924,0,0,1-.721-1.5,38.6,38.6,0,0,0,3.064-4.452.923.923,0,1,1,1.589.939,40.515,40.515,0,0,1-3.211,4.665A.921.921,0,0,1,1166.879,2585.893Zm5.638-9.5a.924.924,0,0,1-.848-1.286,39.309,39.309,0,0,0,1.784-5.106.923.923,0,0,1,1.782.484,41.154,41.154,0,0,1-1.869,5.346A.923.923,0,0,1,1172.517,2576.394Zm-7.079-41.193a.938.938,0,0,1-.19-.019.923.923,0,0,1-.714-1.093,47.858,47.858,0,0,1,1.495-5.442.923.923,0,1,1,1.75.588,46.3,46.3,0,0,0-1.437,5.233A.923.923,0,0,1,1165.438,2535.2Zm3.482-10.493a.912.912,0,0,1-.374-.081.922.922,0,0,1-.468-1.218c.736-1.656,1.572-3.348,2.482-5.029a.923.923,0,1,1,1.623.878c-.888,1.64-1.7,3.288-2.418,4.9A.923.923,0,0,1,1168.921,2524.708Z" transform="translate(-114.606 -1642.245)" fill="#d1ac93" opacity="0.6"/>
    <path id="パス_17826" data-name="パス 17826" d="M1399.353,2612.837l-.059,0a46.8,46.8,0,0,1-5.6-.715.923.923,0,1,1,.337-1.815,44.961,44.961,0,0,0,5.378.688.923.923,0,0,1-.056,1.844Zm5.521-.132a.923.923,0,0,1-.112-1.84,19.081,19.081,0,0,0,5.088-1.316.923.923,0,1,1,.719,1.7,20.9,20.9,0,0,1-5.58,1.448A.873.873,0,0,1,1404.874,2612.706Zm-16.405-1.82a.918.918,0,0,1-.244-.034c-1.7-.467-3.5-1.02-5.344-1.646a.923.923,0,1,1,.593-1.748c1.807.614,3.571,1.156,5.239,1.614a.923.923,0,0,1-.243,1.813Zm26.371-2.529a.923.923,0,0,1-.625-1.6,17.511,17.511,0,0,0,3.247-4.1.923.923,0,1,1,1.6.928,19.342,19.342,0,0,1-3.593,4.535A.926.926,0,0,1,1414.84,2608.356Zm-36.864-1a.923.923,0,0,1-.335-.064q-.563-.219-1.132-.447a.924.924,0,0,1,.686-1.715q.563.225,1.117.442a.923.923,0,0,1-.336,1.783Zm42.525-8.366a.923.923,0,0,1-.876-1.216,41.73,41.73,0,0,0,1.354-5.24.923.923,0,0,1,1.812.353,43.722,43.722,0,0,1-1.415,5.473A.924.924,0,0,1,1420.5,2598.988Zm2.2-10.833c-.033,0-.067,0-.1,0a.923.923,0,0,1-.818-1.017c.183-1.7.324-3.537.42-5.468a.912.912,0,0,1,.968-.876.923.923,0,0,1,.876.968c-.1,1.966-.242,3.842-.429,5.574A.923.923,0,0,1,1422.7,2588.155Zm-5.122-43.471a.922.922,0,0,1-.82-.5,33.569,33.569,0,0,0-2.847-4.568.923.923,0,0,1,1.481-1.1,35.478,35.478,0,0,1,3,4.82.923.923,0,0,1-.818,1.348Zm-6.606-8.82a.918.918,0,0,1-.63-.249,29.525,29.525,0,0,0-2.843-2.344q-.745-.54-1.415-1.087a.923.923,0,0,1,1.168-1.43q.631.515,1.33,1.023a31.392,31.392,0,0,1,3.022,2.491.923.923,0,0,1-.632,1.6Zm-8.122-7.459a.922.922,0,0,1-.753-.389,14.753,14.753,0,0,1-2.424-5.339.923.923,0,0,1,1.8-.4,12.762,12.762,0,0,0,2.126,4.673.923.923,0,0,1-.751,1.458Zm-2.416-10.509a.971.971,0,0,1-.137-.01.923.923,0,0,1-.777-1.049,25.581,25.581,0,0,1,1.526-5.522.923.923,0,1,1,1.72.668,23.824,23.824,0,0,0-1.421,5.126A.923.923,0,0,1,1400.433,2517.9Zm3.814-10.34a.922.922,0,0,1-.812-1.359c.806-1.505,1.729-3.087,2.824-4.835a.923.923,0,1,1,1.565.979c-1.072,1.713-1.975,3.258-2.762,4.728A.922.922,0,0,1,1404.247,2507.557Z" transform="translate(-115.917 -1639.516)" fill="#d1ac93" opacity="0.6"/>
    <g id="グループ_10208" data-name="グループ 10208" transform="translate(-106.438 -1648.844)">
      <g id="グループ_10190" data-name="グループ 10190">
        <g id="グループ_10188" data-name="グループ 10188">
          <path id="パス_17827" data-name="パス 17827" d="M1239.877,2634.493l-4.945-.453-.368,5.264,4.7.443Z" fill="#ffc69f"/>
        </g>
        <path id="パス_17828" data-name="パス 17828" d="M1211.456,2618.25h0a4.209,4.209,0,0,1-4.419-4.025l-1.588-24.512a4.211,4.211,0,0,1,3.993-4.384h0a4.2,4.2,0,0,1,4.414,4.02l1.589,24.521A4.207,4.207,0,0,1,1211.456,2618.25Z" fill="#074068"/>
        <g id="グループ_10189" data-name="グループ 10189">
          <path id="パス_17829" data-name="パス 17829" d="M1213.7,2611.438a3.138,3.138,0,0,0-4.432.238l-.738.822a3.785,3.785,0,0,0,.287,5.346l25.363,22.247,5.181-5.767Z" fill="#172a33"/>
        </g>
        <path id="パス_17830" data-name="パス 17830" d="M1238.31,2639.614s-1.009-4.1,1.052-5.29,6.947-.385,9.069.061,9.513,5.525,8.311,7.555c-1.324,2.234-6.261-.735-8.616-1.043Z" fill="#ffc69f"/>
      </g>
      <g id="グループ_10193" data-name="グループ 10193">
        <g id="グループ_10192" data-name="グループ 10192">
          <rect id="長方形_9763" data-name="長方形 9763" width="5.995" height="10.062" transform="translate(1259.01 2679.912)" fill="#ffc69f"/>
          <rect id="長方形_9764" data-name="長方形 9764" width="7.738" height="5.724" transform="translate(1258.139 2688.585)" fill="#444"/>
          <g id="グループ_10191" data-name="グループ 10191">
            <path id="パス_17831" data-name="パス 17831" d="M1282.084,2700.026h-24.948v-10.052h9.768l12.5,4.783a4.176,4.176,0,0,1,2.683,3.9Z" fill="#333"/>
            <path id="パス_17832" data-name="パス 17832" d="M1281.636,2701.954h-24.052a.448.448,0,0,1-.448-.448v-1.48h24.948v1.48A.449.449,0,0,1,1281.636,2701.954Z" fill="#333"/>
          </g>
        </g>
        <path id="パス_17833" data-name="パス 17833" d="M1199.108,2640.9c.723,5.162,6.195,6.5,8.982,6.5s30.094.62,35.669.62,13.841,9.085,13.841,20.957v19.7h9.188v-20.215c0-12.7-5.372-25.658-17.867-27.875-12.8-2.271-32.882-1.445-32.882-1.445Z" fill="#172a33"/>
      </g>
      <g id="グループ_10198" data-name="グループ 10198">
        <g id="グループ_10194" data-name="グループ 10194">
          <rect id="長方形_9765" data-name="長方形 9765" width="54.641" height="4.196" transform="translate(1202.408 2646.752) rotate(90)" fill="#ee8c0b"/>
          <rect id="長方形_9766" data-name="長方形 9766" width="1.996" height="54.641" transform="translate(1200.412 2646.752)" opacity="0.1"/>
        </g>
        <g id="グループ_10195" data-name="グループ 10195">
          <rect id="長方形_9767" data-name="長方形 9767" width="51.341" height="4.196" transform="translate(1245.297 2646.752) rotate(90)" fill="#ee8c0b"/>
          <rect id="長方形_9768" data-name="長方形 9768" width="1.996" height="51.341" transform="translate(1243.302 2646.752)" opacity="0.1"/>
        </g>
        <g id="グループ_10196" data-name="グループ 10196">
          <rect id="長方形_9769" data-name="長方形 9769" width="56.841" height="4.196" transform="translate(1228.748 2646.752) rotate(90)" fill="#ee8c0b"/>
          <rect id="長方形_9770" data-name="長方形 9770" width="1.996" height="56.841" transform="translate(1226.752 2646.752)" opacity="0.1"/>
        </g>
        <g id="グループ_10197" data-name="グループ 10197">
          <rect id="長方形_9771" data-name="長方形 9771" width="49.141" height="4.196" transform="translate(1218.725 2646.752) rotate(90)" fill="#ee8c0b"/>
          <rect id="長方形_9772" data-name="長方形 9772" width="1.996" height="49.141" transform="translate(1216.729 2646.752)" opacity="0.1"/>
        </g>
        <path id="パス_17834" data-name="パス 17834" d="M1253.87,2658.1h-21.211s-.234-7.692-8.625-7.692h-25.64c-7.459,0-10.722-6.527-11.422-11.655s-3.729-48.483-3.729-48.483h25.174s3.962,46.852,4.2,49.882,1.165,3.5,3.962,3.5h21.911C1244.546,2643.649,1253.87,2650.409,1253.87,2658.1Z" fill="#ee8c0b"/>
        <path id="パス_17835" data-name="パス 17835" d="M1185.472,2590.271c.588,8.354,2.986,42.13,3.6,46.618.7,5.128,3.963,11.655,11.422,11.655h25.64c7.614,0,9.443,6.454,9.882,9.557h-3.356s-.233-7.692-8.624-7.692h-25.64c-7.459,0-10.722-6.527-11.422-11.655s-3.729-48.483-3.729-48.483Z" fill="#7f523e"/>
      </g>
      <g id="グループ_10201" data-name="グループ 10201">
        <g id="グループ_10200" data-name="グループ 10200">
          <rect id="長方形_9773" data-name="長方形 9773" width="5.995" height="10.062" transform="translate(1246.002 2679.912)" fill="#ffc69f"/>
          <rect id="長方形_9774" data-name="長方形 9774" width="7.738" height="5.724" transform="translate(1245.13 2688.585)" fill="#444"/>
          <g id="グループ_10199" data-name="グループ 10199">
            <path id="パス_17836" data-name="パス 17836" d="M1269.076,2700.026h-24.948v-10.052h9.768l12.5,4.783a4.176,4.176,0,0,1,2.683,3.9Z" fill="#333"/>
            <path id="パス_17837" data-name="パス 17837" d="M1268.628,2701.954h-24.052a.448.448,0,0,1-.448-.448v-1.48h24.948v1.48A.449.449,0,0,1,1268.628,2701.954Z" fill="#333"/>
          </g>
        </g>
        <path id="パス_17838" data-name="パス 17838" d="M1195.663,2637.683c-.619,9.291,6.284,10.34,9.072,10.34h26.016c5.575,0,13.841,9.085,13.841,20.957v19.7h9.188v-20.215c0-12.7-5.372-25.658-17.867-27.875a82.6,82.6,0,0,0-23.229-.826Z" fill="#172a33"/>
      </g>
      <g id="グループ_10202" data-name="グループ 10202">
        <path id="パス_17839" data-name="パス 17839" d="M1212.98,2578.938c-3.135,1.956-8.749,4.578-9.414,8.213l-8.98,49.1,23.467,2.578,5.227-41.253-.406-15.075-3.647-3.913Z" fill="#fff"/>
        <path id="パス_17840" data-name="パス 17840" d="M1217.009,2585.948l1.188,2.354-4.245,23.174,1.89,2.634,2.034-2.361,1.389-23.54,1.39-1.96-1.541-1.461Z" fill="#d82619"/>
        <path id="パス_17841" data-name="パス 17841" d="M1213.22,2579.782l2.347,6.665,3.547-1.659-3.982,2.827Z" fill="#ddd"/>
        <path id="パス_17842" data-name="パス 17842" d="M1222.774,2582.978l-1.075,3.542-2.584-1.732,2.707,3.22Z" fill="#ddd"/>
        <path id="パス_17843" data-name="パス 17843" d="M1212.98,2578.938c-3.715.743-9.229,2.777-9.914,6.5l-9.557,52.3,17.743,1.9,5.458-29.494Z" fill="#172a33"/>
        <path id="パス_17844" data-name="パス 17844" d="M1222.874,2582.5l-6.164,27.647-5.767,29.7,11.381.413s3.043-51.072,2.91-53.349A5.414,5.414,0,0,0,1222.874,2582.5Z" fill="#172a33"/>
      </g>
      <g id="グループ_10204" data-name="グループ 10204">
        <g id="グループ_10203" data-name="グループ 10203">
          <path id="パス_17845" data-name="パス 17845" d="M1219.115,2584.788s-4.487-3.179-6.135-5.85l5.778-11.545,6.382,2.346-2.266,12.764C1222.523,2583.893,1219.115,2584.788,1219.115,2584.788Z" fill="#ffc69f"/>
        </g>
        <path id="長方形_9775" data-name="長方形 9775" d="M0,0H25.26a0,0,0,0,1,0,0V21.45A12.215,12.215,0,0,1,13.045,33.665h-.831A12.215,12.215,0,0,1,0,21.45V0A0,0,0,0,1,0,0Z" transform="translate(1215.52 2544.174) rotate(7.384)" fill="#ffc69f"/>
        <path id="パス_17846" data-name="パス 17846" d="M1240.834,2543.845c.508-3.923-4.216-3.625-4.216-3.625l-17.521-2.271c-7.649-.991-8.706,9.582-4.8,11.255l-.987,7.622a4.205,4.205,0,0,1,2.843,2.711c.1-.42.715-.579.8-1.207.595-4.592,2-6.554,6.378-5.986l2.183.283c3.25.421,4.489-5.1,10.067-4.382C1235.26,2550.685,1245.634,2546.768,1240.834,2543.845Z" fill="#7f523e"/>
        <circle id="楕円形_1801" data-name="楕円形 1801" cx="5.546" cy="5.546" r="5.546" transform="translate(1233.022 2536.749)" fill="#7f523e"/>
        <circle id="楕円形_1802" data-name="楕円形 1802" cx="5.546" cy="5.546" r="5.546" transform="translate(1216.346 2532.861)" fill="#7f523e"/>
        <circle id="楕円形_1803" data-name="楕円形 1803" cx="5.546" cy="5.546" r="5.546" transform="translate(1225.031 2532.448)" fill="#7f523e"/>
        <circle id="楕円形_1804" data-name="楕円形 1804" cx="5.049" cy="5.049" r="5.049" transform="translate(1235.666 2543.548)" fill="#7f523e"/>
        <circle id="楕円形_1805" data-name="楕円形 1805" cx="5.049" cy="5.049" r="5.049" transform="translate(1227.712 2542.517)" fill="#7f523e"/>
        <circle id="楕円形_1806" data-name="楕円形 1806" cx="3.277" cy="3.277" r="3.277" transform="translate(1209.988 2556.874)" fill="#ffc69f"/>
        <path id="パス_17847" data-name="パス 17847" d="M1226.835,2571.959a.453.453,0,0,1,.613-.187,6.985,6.985,0,0,0,2.107.668l.73.091a7,7,0,0,0,2.206-.13.453.453,0,1,1,.218.88,7.778,7.778,0,0,1-2.536.151l-.731-.091a7.8,7.8,0,0,1-2.421-.769A.453.453,0,0,1,1226.835,2571.959Z" fill="#ff4040"/>
        <circle id="楕円形_1807" data-name="楕円形 1807" cx="1.266" cy="1.266" r="1.266" transform="translate(1225.619 2558.496)" fill="#4c3125"/>
        <circle id="楕円形_1808" data-name="楕円形 1808" cx="1.266" cy="1.266" r="1.266" transform="translate(1235.476 2559.724)" fill="#4c3125"/>
        <path id="パス_17848" data-name="パス 17848" d="M1223.832,2555.56a.4.4,0,0,1,0-.8,16.371,16.371,0,0,1,3.275-.07,10.2,10.2,0,0,1,2.727.826.4.4,0,1,1-.348.73,9.482,9.482,0,0,0-2.479-.754,15.961,15.961,0,0,0-3.077.07A.42.42,0,0,1,1223.832,2555.56Z" fill="#7f523e"/>
        <path id="パス_17849" data-name="パス 17849" d="M1234.289,2556.863a.4.4,0,0,1-.009-.8,13.691,13.691,0,0,1,3.1-.094,8.232,8.232,0,0,1,2.56.812.4.4,0,1,1-.381.713,7.509,7.509,0,0,0-2.279-.723,13.079,13.079,0,0,0-2.883.092A.453.453,0,0,1,1234.289,2556.863Z" fill="#7f523e"/>
        <path id="パス_17850" data-name="パス 17850" d="M1231.661,2560.182c-.4,5.136,2.246,6.277,2.09,7.526s-3.481,2.1-3.481,2.1,2.277-1.5,2.372-2.272c.134-1.083-1.015-2.214-1.273-3.767C1231.314,2563.445,1231.615,2560.553,1231.661,2560.182Z" fill="#f99980"/>
      </g>
      <g id="グループ_10207" data-name="グループ 10207">
        <g id="グループ_10205" data-name="グループ 10205">
          <path id="パス_17851" data-name="パス 17851" d="M1229.139,2634.171l-4.964-.136-.031,5.277,4.719.142Z" fill="#ffc69f"/>
        </g>
        <path id="パス_17852" data-name="パス 17852" d="M1202.206,2622.1h0a4.208,4.208,0,0,1-3.443-4.885l3.754-24.275a4.213,4.213,0,0,1,4.848-3.417h0a4.2,4.2,0,0,1,3.439,4.881l-3.755,24.284A4.209,4.209,0,0,1,1202.206,2622.1Z" fill="#172a33"/>
        <g id="グループ_10206" data-name="グループ 10206">
          <path id="パス_17853" data-name="パス 17853" d="M1205.02,2615.235a3.139,3.139,0,0,0-4.408.521l-.684.867a3.787,3.787,0,0,0,.628,5.317l23.256,18.181,4.8-6.086Z" fill="#172a33"/>
        </g>
        <path id="パス_17854" data-name="パス 17854" d="M1228.256,2639.417s-1.532-3.932.357-5.382,6.839-1.282,9-1.114,10.149,4.245,9.22,6.413c-1.023,2.387-6.3.083-8.678.083Z" fill="#ffc69f"/>
      </g>
    </g>
    <g id="グループ_10230" data-name="グループ 10230" transform="translate(-106.438 -1648.844)">
      <g id="グループ_10213" data-name="グループ 10213">
        <g id="グループ_10209" data-name="グループ 10209">
          <rect id="長方形_9776" data-name="長方形 9776" width="54.641" height="4.196" transform="translate(1367.756 2646.752) rotate(90)" fill="#ee8c0b"/>
          <rect id="長方形_9777" data-name="長方形 9777" width="1.996" height="54.641" transform="translate(1365.76 2646.752)" opacity="0.1"/>
        </g>
        <g id="グループ_10210" data-name="グループ 10210">
          <rect id="長方形_9778" data-name="長方形 9778" width="51.341" height="4.196" transform="translate(1324.867 2646.752) rotate(90)" fill="#ee8c0b"/>
          <rect id="長方形_9779" data-name="長方形 9779" width="1.996" height="51.341" transform="translate(1322.871 2646.752)" opacity="0.1"/>
        </g>
        <g id="グループ_10211" data-name="グループ 10211">
          <rect id="長方形_9780" data-name="長方形 9780" width="56.841" height="4.196" transform="translate(1341.416 2646.752) rotate(90)" fill="#ee8c0b"/>
          <rect id="長方形_9781" data-name="長方形 9781" width="1.996" height="56.841" transform="translate(1339.421 2646.752)" opacity="0.1"/>
        </g>
        <g id="グループ_10212" data-name="グループ 10212">
          <rect id="長方形_9782" data-name="長方形 9782" width="49.141" height="4.196" transform="translate(1351.439 2646.752) rotate(90)" fill="#ee8c0b"/>
          <rect id="長方形_9783" data-name="長方形 9783" width="1.996" height="49.141" transform="translate(1349.444 2646.752)" opacity="0.1"/>
        </g>
        <path id="パス_17855" data-name="パス 17855" d="M1312.1,2658.1h21.212s.233-7.692,8.624-7.692h25.64c7.459,0,10.723-6.527,11.422-11.655s3.73-48.483,3.73-48.483h-25.175s-3.962,46.852-4.2,49.882-1.166,3.5-3.963,3.5h-21.911C1321.422,2643.649,1312.1,2650.409,1312.1,2658.1Z" fill="#ee8c0b"/>
        <path id="パス_17856" data-name="パス 17856" d="M1380.5,2590.271c-.589,8.354-2.987,42.13-3.6,46.618-.7,5.128-3.962,11.655-11.421,11.655h-25.641c-7.614,0-9.442,6.454-9.882,9.557h3.356s.233-7.692,8.624-7.692h25.64c7.46,0,10.723-6.527,11.422-11.655s3.73-48.483,3.73-48.483Z" fill="#7f523e"/>
      </g>
      <g id="グループ_10216" data-name="グループ 10216">
        <g id="グループ_10215" data-name="グループ 10215">
          <rect id="長方形_9784" data-name="長方形 9784" width="5.995" height="10.062" transform="translate(1306.958 2689.974) rotate(180)" fill="#ffc69f"/>
          <rect id="長方形_9785" data-name="長方形 9785" width="7.738" height="5.724" transform="translate(1307.83 2694.31) rotate(180)" fill="#fff"/>
          <g id="グループ_10214" data-name="グループ 10214">
            <path id="パス_17857" data-name="パス 17857" d="M1283.884,2700.026h24.949v-10.052h-9.769l-12.5,4.783a4.176,4.176,0,0,0-2.683,3.9Z" fill="#fff"/>
            <path id="パス_17858" data-name="パス 17858" d="M1284.332,2701.954h24.053a.449.449,0,0,0,.448-.448v-1.48h-24.949v1.48A.449.449,0,0,0,1284.332,2701.954Z" fill="#ddd"/>
            <path id="パス_17859" data-name="パス 17859" d="M1296.284,2694.643l-1.17-3.086a.545.545,0,0,1,.315-.7h0a.546.546,0,0,1,.705.316l1.17,3.087a.545.545,0,0,1-.316.7h0A.545.545,0,0,1,1296.284,2694.643Z" fill="#ddd"/>
            <path id="パス_17860" data-name="パス 17860" d="M1293.816,2695.583l-1.17-3.087a.546.546,0,0,1,.315-.7h0a.546.546,0,0,1,.7.316l1.17,3.086a.544.544,0,0,1-.315.7h0A.545.545,0,0,1,1293.816,2695.583Z" fill="#ddd"/>
            <path id="パス_17861" data-name="パス 17861" d="M1291.349,2696.523l-1.171-3.087a.547.547,0,0,1,.316-.7h0a.546.546,0,0,1,.7.316l1.17,3.087a.545.545,0,0,1-.315.7h0A.545.545,0,0,1,1291.349,2696.523Z" fill="#ddd"/>
          </g>
        </g>
        <path id="パス_17862" data-name="パス 17862" d="M1367.307,2635.35c-.723,5.162-6.641,12.053-9.429,12.053s-30.094.62-35.669.62-13.841,11.9-13.841,20.957v17.241h-9.188v-17.757c0-12.7,5.585-24.683,17.867-27.875,12.786-3.322,28.413-7.686,28.413-7.686Z" fill="#7f523e"/>
      </g>
      <g id="グループ_10220" data-name="グループ 10220">
        <g id="グループ_10219" data-name="グループ 10219">
          <g id="グループ_10217" data-name="グループ 10217">
            <path id="パス_17863" data-name="パス 17863" d="M1314.983,2576.364l-1.836,5.717-5.282-3.333c-.337-.092-2.079-2.6-4.99-3.917-5.759-1.074-7.548-1-9.179-1.536s.126-2.166,2.035-2.274,17.069.1,17.069.1Z" fill="#ffc69f"/>
          </g>
          <path id="パス_17864" data-name="パス 17864" d="M1310.036,2572.127l2.764-1-.164-5.846a.385.385,0,0,0-.574-.328l-.921.518a2.165,2.165,0,0,0-1.1,1.861Z" fill="#ffc69f"/>
          <path id="パス_17865" data-name="パス 17865" d="M1332.225,2596.417h0c.811,2.194,5.4,3.461,5.4,3.461l23.2-4.186c2.162-.82,3.258-8.229,2.456-10.4h0a4.2,4.2,0,0,0-5.434-2.472l-23.163,8.2A4.208,4.208,0,0,0,1332.225,2596.417Z" fill="#1f3847"/>
          <g id="グループ_10218" data-name="グループ 10218">
            <path id="パス_17866" data-name="パス 17866" d="M1341.357,2592.07c1.4,1.025.7,3.989-.324,5.387l-.653.891a3.785,3.785,0,0,1-5.291.814l-24.789-18.028,4.583-6.253Z" fill="#1f3847"/>
          </g>
        </g>
      </g>
      <g id="グループ_10223" data-name="グループ 10223">
        <g id="グループ_10222" data-name="グループ 10222">
          <rect id="長方形_9786" data-name="長方形 9786" width="5.995" height="10.062" transform="translate(1319.966 2689.974) rotate(180)" fill="#ffc69f"/>
          <rect id="長方形_9787" data-name="長方形 9787" width="7.738" height="5.724" transform="translate(1320.838 2694.31) rotate(180)" fill="#fff"/>
          <g id="グループ_10221" data-name="グループ 10221">
            <path id="パス_17867" data-name="パス 17867" d="M1296.892,2700.026h24.949v-10.052h-9.769l-12.5,4.783a4.176,4.176,0,0,0-2.683,3.9Z" fill="#fff"/>
            <path id="パス_17868" data-name="パス 17868" d="M1297.34,2701.954h24.053a.449.449,0,0,0,.448-.448v-1.48h-24.949v1.48A.449.449,0,0,0,1297.34,2701.954Z" fill="#ddd"/>
            <path id="パス_17869" data-name="パス 17869" d="M1309.292,2694.643l-1.17-3.086a.545.545,0,0,1,.315-.7h0a.546.546,0,0,1,.7.316l1.17,3.087a.545.545,0,0,1-.315.7h0A.546.546,0,0,1,1309.292,2694.643Z" fill="#ddd"/>
            <path id="パス_17870" data-name="パス 17870" d="M1306.824,2695.583l-1.17-3.087a.545.545,0,0,1,.315-.7h0a.545.545,0,0,1,.7.316l1.17,3.086a.544.544,0,0,1-.315.7h0A.546.546,0,0,1,1306.824,2695.583Z" fill="#ddd"/>
            <path id="パス_17871" data-name="パス 17871" d="M1304.357,2696.523l-1.171-3.087a.547.547,0,0,1,.316-.7h0a.546.546,0,0,1,.7.316l1.17,3.087a.545.545,0,0,1-.315.7h0A.545.545,0,0,1,1304.357,2696.523Z" fill="#ddd"/>
          </g>
        </g>
        <path id="パス_17872" data-name="パス 17872" d="M1370.662,2635.97c-.723,5.162-6.641,12.053-9.428,12.053h-26.017c-5.574,0-13.841,9.085-13.841,20.957v17.241h-9.188v-17.757c0-12.7,5.373-25.658,17.867-27.875a149.117,149.117,0,0,0,23.676-6.374Z" fill="#7f523e"/>
      </g>
      <g id="グループ_10224" data-name="グループ 10224">
        <path id="パス_17873" data-name="パス 17873" d="M1368.321,2583.187c2.561,2.665,6.606,5.614,6.359,9.3l-2.883,44.256-23.383-3.252,4.6-35.728,4.089-14.515,4.494-2.9Z" fill="#fff"/>
        <path id="パス_17874" data-name="パス 17874" d="M1368.321,2583.187c3.42,1.631,7.512,3.985,7.263,7.766l-3.095,46.032-12.317-1.841,3.87-38.375Z" fill="#1f3847"/>
        <path id="パス_17875" data-name="パス 17875" d="M1357.1,2583.249l-3,13.789-4.251,36.843-6.288-.35,8.03-46.962Z" fill="#1f3847"/>
      </g>
      <g id="グループ_10226" data-name="グループ 10226">
        <g id="グループ_10225" data-name="グループ 10225">
          <path id="パス_17876" data-name="パス 17876" d="M1360.864,2586.544a11,11,0,0,0,7.457-3.357l-3-11.692h-8.22v11.754C1357.1,2584.682,1359.345,2586.544,1360.864,2586.544Z" fill="#ffc69f"/>
        </g>
        <path id="長方形_9788" data-name="長方形 9788" d="M12.215,0h.831A12.215,12.215,0,0,1,25.26,12.215V32.2a0,0,0,0,1,0,0H0a0,0,0,0,1,0,0V12.215A12.215,12.215,0,0,1,12.215,0Z" transform="translate(1370.134 2580.938) rotate(180)" fill="#ffc69f"/>
        <path id="パス_17877" data-name="パス 17877" d="M1356.618,2571.427a.454.454,0,0,0-.586-.261,6.989,6.989,0,0,1-2.173.4h-.736a6.982,6.982,0,0,1-2.173-.4.454.454,0,0,0-.325.848,7.82,7.82,0,0,0,2.5.462h.736a7.821,7.821,0,0,0,2.5-.462A.455.455,0,0,0,1356.618,2571.427Z" fill="#ff4040"/>
        <circle id="楕円形_1809" data-name="楕円形 1809" cx="1.266" cy="1.266" r="1.266" transform="translate(1356.444 2557.839)" fill="#4c3125"/>
        <circle id="楕円形_1810" data-name="楕円形 1810" cx="1.266" cy="1.266" r="1.266" transform="translate(1346.511 2557.839)" fill="#4c3125"/>
        <path id="パス_17878" data-name="パス 17878" d="M1361.26,2555.312a.4.4,0,0,0,.1-.8,16.5,16.5,0,0,0-3.241-.474,10.209,10.209,0,0,0-2.809.483.4.4,0,0,0,.256.767,9.512,9.512,0,0,1,2.553-.442,15.975,15.975,0,0,1,3.045.45A.414.414,0,0,0,1361.26,2555.312Z" fill="#4c3125"/>
        <path id="パス_17879" data-name="パス 17879" d="M1350.722,2555.312a.4.4,0,0,0,.108-.793,13.676,13.676,0,0,0-3.066-.477,8.245,8.245,0,0,0-2.641.489.4.4,0,0,0,.29.755,7.519,7.519,0,0,1,2.351-.436,13.073,13.073,0,0,1,2.85.448A.405.405,0,0,0,1350.722,2555.312Z" fill="#4c3125"/>
        <path id="パス_17880" data-name="パス 17880" d="M1342.066,2544.905c0-3.956,3.776-7.187,9.048-7.472,0,1.71,0,3.206,0,3.206h16.274c7.713,0,7.4,10.621,3.315,11.779v7.686a4.206,4.206,0,0,0-3.169,2.322c-.041-.428-.634-.665-.634-1.3,0-7.551-1.14-9.973-5.557-9.973h-11.3c-3.277,0-3.633-.927-5.129-2.423v8.71a5.682,5.682,0,0,1-6.2-6.162A8.078,8.078,0,0,1,1342.066,2544.905Z" fill="#4c3125"/>
        <circle id="楕円形_1811" data-name="楕円形 1811" cx="2.82" cy="2.82" r="2.82" transform="translate(1366.722 2559.81)" fill="#ffc69f"/>
        <path id="パス_17881" data-name="パス 17881" d="M1353.086,2558.407c-.245,5.32-3.1,6.154-3.1,7.455s3.3,2.6,3.3,2.6-2.144-1.831-2.144-2.632c0-1.128,1.323-2.142,1.787-3.7C1353.027,2561.8,1353.086,2558.793,1353.086,2558.407Z" fill="#f99980"/>
      </g>
      <g id="グループ_10229" data-name="グループ 10229">
        <g id="グループ_10227" data-name="グループ 10227">
          <path id="パス_17882" data-name="パス 17882" d="M1308.439,2609.805l4.965-.045-.066,5.277-4.721.055Z" fill="#ffc69f"/>
        </g>
        <path id="パス_17883" data-name="パス 17883" d="M1347.961,2615.575l24.133-18.873c1.561-1.7-2.77-9.824-3.773-13.515l-27.955,26.375C1338.807,2611.265,1347.961,2615.575,1347.961,2615.575Z" fill="#1f3847"/>
        <g id="グループ_10228" data-name="グループ 10228">
          <path id="パス_17884" data-name="パス 17884" d="M1345.99,2606.564c1.733-.015,3.177,6.215,3.177,6.215a3.8,3.8,0,0,1-3.752,3.833l-33.737.007-.071-6.862Z" fill="#1f3847"/>
        </g>
      </g>
      <path id="パス_17885" data-name="パス 17885" d="M1301.013,2613.924c1.471-.087,3.27,1.513,5.125,1.4s3.087-.26,3.087-.26,1.076-3.777-.786-5.262-6.287-1.533-8.451-1.405-10.347,4.723-11.369,7.11,7.825,1.166,8.794.488S1299.544,2614.011,1301.013,2613.924Z" fill="#ffc69f"/>
    </g>
    <g id="グループ_10234" data-name="グループ 10234" transform="translate(-106.438 -1648.844)">
      <rect id="長方形_9789" data-name="長方形 9789" width="137.991" height="4.196" rx="1.907" transform="translate(1205.844 2616.61)" fill="#4c3125"/>
      <g id="グループ_10231" data-name="グループ 10231">
        <rect id="長方形_9790" data-name="長方形 9790" width="82.991" height="4.196" transform="translate(1315.58 2623.902) rotate(90)" fill="#7f523e"/>
        <rect id="長方形_9791" data-name="長方形 9791" width="1.996" height="82.991" transform="translate(1313.584 2623.902)" opacity="0.3"/>
      </g>
      <g id="グループ_10232" data-name="グループ 10232">
        <rect id="長方形_9792" data-name="長方形 9792" width="82.991" height="4.196" transform="translate(1259.689 2623.902) rotate(90)" fill="#7f523e"/>
        <rect id="長方形_9793" data-name="長方形 9793" width="1.996" height="82.991" transform="translate(1257.693 2623.902)" opacity="0.3"/>
      </g>
      <g id="グループ_10233" data-name="グループ 10233">
        <rect id="長方形_9794" data-name="長方形 9794" width="79.691" height="4.196" transform="translate(1235.68 2623.902) rotate(90)" fill="#7f523e"/>
        <rect id="長方形_9795" data-name="長方形 9795" width="1.996" height="79.691" transform="translate(1233.685 2623.902)" opacity="0.3"/>
      </g>
      <rect id="長方形_9796" data-name="長方形 9796" width="92.479" height="3.096" transform="translate(1228.6 2620.806)" fill="#4c3125"/>
    </g>
    <g id="グループ_10236" data-name="グループ 10236" transform="translate(-106.438 -1648.844)">
      <g id="グループ_10235" data-name="グループ 10235">
        <rect id="長方形_9797" data-name="長方形 9797" width="40.105" height="30.404" rx="1.748" transform="translate(1298.019 2614.515) rotate(-180)" fill="#444"/>
        <circle id="楕円形_1812" data-name="楕円形 1812" cx="3.956" cy="3.956" r="3.956" transform="translate(1274.011 2595.907)" fill="#666"/>
      </g>
      <rect id="長方形_9798" data-name="長方形 9798" width="44.889" height="2.727" rx="1.239" transform="translate(1258.474 2614.515)" fill="#222"/>
    </g>
    <g id="グループ_10237" data-name="グループ 10237" transform="translate(1106.665 847)">
      <path id="パス_17886" data-name="パス 17886" d="M1248.471,2488.242h-32.784a2.242,2.242,0,0,0-2.242,2.242v20.3a2.242,2.242,0,0,0,2.242,2.242h14.171l2.221,3.892,2.222-3.892h14.17a2.242,2.242,0,0,0,2.242-2.242v-20.3A2.242,2.242,0,0,0,1248.471,2488.242Z" transform="translate(-1213.445 -2488.242)" fill="#ddd" opacity="0.4"/>
      <path id="パス_17887" data-name="パス 17887" d="M1234.282,2497.178a4.431,4.431,0,0,0-7.092,4.166c.441,2.794,2.376,5.934,7.092,7.588,4.717-1.654,6.651-4.793,7.092-7.588A4.431,4.431,0,0,0,1234.282,2497.178Z" transform="translate(-1215.648 -2489.53)" fill="#ee2676"/>
    </g>
    <g id="グループ_10240" data-name="グループ 10240" transform="translate(1034.436 948.156)">
      <g id="グループ_10238" data-name="グループ 10238" transform="translate(0 0)">
        <path id="パス_17888" data-name="パス 17888" d="M1146.437,2604.3v25.945h19.515v-21.874l-3.787-4.071Z" transform="translate(-1146.437 -2604.301)" fill="#fff"/>
      </g>
      <path id="パス_17889" data-name="パス 17889" d="M1165.179,2604.3l3.787,4.071h-3.787Z" transform="translate(-1149.452 -2604.301)" fill="#dbdcdc"/>
      <g id="グループ_10239" data-name="グループ 10239" transform="translate(3.036 3.149)">
        <rect id="長方形_9799" data-name="長方形 9799" width="13.442" height="0.63" transform="translate(0 3.711)" fill="#dbdcdc"/>
        <rect id="長方形_9800" data-name="長方形 9800" width="13.442" height="0.63" transform="translate(0 7.422)" fill="#dbdcdc"/>
        <rect id="長方形_9801" data-name="長方形 9801" width="7.825" height="0.63" fill="#dbdcdc"/>
        <rect id="長方形_9802" data-name="長方形 9802" width="13.442" height="0.63" transform="translate(0 11.132)" fill="#dbdcdc"/>
        <rect id="長方形_9803" data-name="長方形 9803" width="13.442" height="0.63" transform="translate(0 14.843)" fill="#dbdcdc"/>
        <rect id="長方形_9804" data-name="長方形 9804" width="13.442" height="0.63" transform="translate(0 18.554)" fill="#dbdcdc"/>
      </g>
    </g>
    <g id="グループ_10242" data-name="グループ 10242" transform="translate(1279.069 837.006)">
      <rect id="長方形_9805" data-name="長方形 9805" width="29.249" height="20.801" transform="translate(0 0)" fill="#ddd" opacity="0.4"/>
      <path id="パス_17890" data-name="パス 17890" d="M1413.264,2482.91l-14.625-11.066h29.249Z" transform="translate(-1398.64 -2471.844)" fill="#ccc"/>
      <g id="グループ_10241" data-name="グループ 10241" transform="translate(13.07 14.275)">
        <path id="パス_17891" data-name="パス 17891" d="M1417.325,2490.41a1.555,1.555,0,1,1-1.555-1.555A1.556,1.556,0,0,1,1417.325,2490.41Z" transform="translate(-1414.215 -2488.855)" fill="#ccc"/>
      </g>
    </g>
    <g id="グループ_10245" data-name="グループ 10245" transform="translate(1039.918 897.101)">
      <g id="グループ_10243" data-name="グループ 10243" transform="translate(11.964 15.692)">
        <path id="パス_17892" data-name="パス 17892" d="M1174.571,2562.158l-7.344,5.57,8.16,3.13Z" transform="translate(-1167.227 -2562.158)" fill="#ffeec2"/>
        <path id="パス_17893" data-name="パス 17893" d="M1176.333,2569.83l-1.91,1.449,2.122.814Z" transform="translate(-1168.385 -2563.393)" fill="#444"/>
      </g>
      <path id="パス_17894" data-name="パス 17894" d="M1155.887,2547.528l11.964,15.692,1,.044.221-.97.007-.006.994.044.22-.964.007-.005-11.964-15.692Z" transform="translate(-1153.439 -2543.814)" fill="#428853"/>
      <path id="パス_17895" data-name="パス 17895" d="M1158.8,2545.315l11.964,15.692.007-.006.988.043.218-.958.022-.017.981.043.217-.953.015-.011-11.964-15.692Z" transform="translate(-1153.908 -2543.458)" fill="#2e6053"/>
      <g id="グループ_10244" data-name="グループ 10244" transform="translate(0 3.714)">
        <path id="パス_17896" data-name="パス 17896" d="M1152.97,2549.741l11.964,15.692,2.448-1.857-11.964-15.692Z" transform="translate(-1152.97 -2547.884)" fill="#2e6053"/>
        <path id="パス_17897" data-name="パス 17897" d="M1168.232,2568.669l.222-.976-1.222.931Z" transform="translate(-1155.264 -2551.071)" fill="#2e6053"/>
        <path id="パス_17898" data-name="パス 17898" d="M1169.688,2567.559l.222-.975-1.221.931Z" transform="translate(-1155.498 -2550.892)" fill="#2e6053"/>
      </g>
    </g>
    <g id="グループ_10246" data-name="グループ 10246" transform="translate(1224.103 847)">
      <path id="パス_17899" data-name="パス 17899" d="M1367.37,2490.35h-27.01a3.647,3.647,0,0,0-3.648,3.648v24.5a3.647,3.647,0,0,0,3.648,3.647h11.323l2.271,4.066,2.271-4.066h11.146a3.647,3.647,0,0,0,3.648-3.647V2494A3.647,3.647,0,0,0,1367.37,2490.35Z" transform="translate(-1336.712 -2490.35)" fill="#ddd" opacity="0.4"/>
      <rect id="長方形_9806" data-name="長方形 9806" width="20.274" height="2.984" transform="translate(27.378 17.389) rotate(180)" fill="#ddd"/>
      <rect id="長方形_9807" data-name="長方形 9807" width="20.274" height="2.984" transform="translate(27.378 23.977) rotate(180)" fill="#ddd"/>
      <rect id="長方形_9808" data-name="長方形 9808" width="20.274" height="2.984" transform="translate(27.378 10.802) rotate(180)" fill="#ddd"/>
    </g>
    <path id="パス_17900" data-name="パス 17900" d="M1180.6,2487.959a8.112,8.112,0,0,0-8.111,8.111c0,7.526,8.111,15.121,8.111,15.121s8.111-7.594,8.111-15.121A8.111,8.111,0,0,0,1180.6,2487.959Zm0,11.511a3.4,3.4,0,1,1,3.4-3.4A3.4,3.4,0,0,1,1180.6,2499.47Z" transform="translate(-116.192 -1637.43)" fill="#d82619"/>
    <g id="グループ_10247" data-name="グループ 10247" transform="translate(1301.496 910.508)">
      <rect id="長方形_9809" data-name="長方形 9809" width="20.887" height="25.122" transform="translate(0 0)" fill="#444"/>
      <rect id="長方形_9810" data-name="長方形 9810" width="14.011" height="18.246" transform="translate(3.438 3.438)" fill="#fff"/>
      <path id="パス_17901" data-name="パス 17901" d="M1443.474,2583.564l-4.452-8.934-3.209,6.44-2.388-3.785-3.962,6.28Z" transform="translate(-1426.025 -2561.88)" fill="#2e6053"/>
      <ellipse id="楕円形_1813" data-name="楕円形 1813" cx="2.126" cy="2.126" rx="2.126" ry="2.126" transform="translate(5.577 6.079)" fill="#fcbf18"/>
    </g>
  </g>
</svg>
