<svg xmlns="http://www.w3.org/2000/svg" width="150" height="150" viewBox="0 0 150 150">
  <g id="img_market-bigdata" transform="translate(6651 -693)">
    <path id="パス_18027" data-name="パス 18027" d="M0,0H150V150H0Z" transform="translate(-6651 693)" fill="#fff"/>
    <g id="グループ_10513" data-name="グループ 10513" transform="translate(-6636 732.375)">
      <circle id="楕円形_122" data-name="楕円形 122" cx="11.25" cy="11.25" r="11.25" fill="#f80"/>
    </g>
    <g id="グループ_10494" data-name="グループ 10494" transform="translate(-6587.25 805.5)">
      <circle id="楕円形_123" data-name="楕円形 123" cx="11.25" cy="11.25" r="11.25" fill="#f80"/>
    </g>
    <g id="グループ_10500" data-name="グループ 10500" transform="translate(-6538.5 781.125)">
      <circle id="楕円形_124" data-name="楕円形 124" cx="11.25" cy="11.25" r="11.25" fill="#f80"/>
    </g>
    <g id="グループ_10507" data-name="グループ 10507" transform="translate(-6587.25 756.75)">
      <circle id="楕円形_125" data-name="楕円形 125" cx="11.25" cy="11.25" r="11.25" fill="#40abb3"/>
    </g>
    <g id="グループ_10501" data-name="グループ 10501" transform="translate(-6611.625 781.125)">
      <circle id="楕円形_126" data-name="楕円形 126" cx="11.25" cy="11.25" r="11.25" fill="#fcbf18"/>
    </g>
    <g id="グループ_10520" data-name="グループ 10520" transform="translate(-6611.625 708)">
      <circle id="楕円形_127" data-name="楕円形 127" cx="11.25" cy="11.25" r="11.25" fill="#40abb3"/>
    </g>
    <g id="グループ_10514" data-name="グループ 10514" transform="translate(-6538.5 732.375)">
      <circle id="楕円形_128" data-name="楕円形 128" cx="11.25" cy="11.25" r="11.25" fill="#fcbf18"/>
    </g>
    <g id="グループ_10521" data-name="グループ 10521" transform="translate(-6562.875 708)">
      <circle id="楕円形_129" data-name="楕円形 129" cx="11.25" cy="11.25" r="11.25" fill="#f80"/>
    </g>
    <g id="グループ_10522" data-name="グループ 10522" transform="translate(-6628.5 715.5)">
      <path id="パス_10059" data-name="パス 10059" d="M331.75,79.5a3.75,3.75,0,1,1,3.75-3.75A3.75,3.75,0,0,1,331.75,79.5Zm0-3.752Z" transform="translate(-328 -72)" fill="#444"/>
    </g>
    <g id="グループ_10523" data-name="グループ 10523" transform="translate(-6604.125 715.5)">
      <path id="パス_10060" data-name="パス 10060" d="M357.75,79.5a3.75,3.75,0,1,1,3.75-3.75,3.75,3.75,0,0,1-3.75,3.75Zm0-3.752Z" transform="translate(-354 -72)" fill="#fff"/>
    </g>
    <g id="グループ_10524" data-name="グループ 10524" transform="translate(-6579.75 715.5)">
      <path id="パス_10061" data-name="パス 10061" d="M383.75,79.5a3.75,3.75,0,1,1,3.75-3.75,3.75,3.75,0,0,1-3.75,3.75Zm0-3.752Z" transform="translate(-380 -72)" fill="#444"/>
    </g>
    <g id="グループ_10525" data-name="グループ 10525" transform="translate(-6555.375 715.5)">
      <path id="パス_10062" data-name="パス 10062" d="M409.75,79.5a3.75,3.75,0,1,1,3.75-3.75,3.75,3.75,0,0,1-3.75,3.75Zm0-3.752Z" transform="translate(-406 -72)" fill="#fff"/>
    </g>
    <g id="グループ_10526" data-name="グループ 10526" transform="translate(-6531 715.5)">
      <path id="パス_10063" data-name="パス 10063" d="M435.75,79.5a3.75,3.75,0,1,1,3.75-3.75A3.75,3.75,0,0,1,435.75,79.5Zm0-3.752Z" transform="translate(-432 -72)" fill="#444"/>
    </g>
    <g id="グループ_10515" data-name="グループ 10515" transform="translate(-6628.5 739.875)">
      <path id="パス_10064" data-name="パス 10064" d="M331.75,105.5a3.75,3.75,0,1,1,3.75-3.75,3.75,3.75,0,0,1-3.75,3.75Zm0-3.752Z" transform="translate(-328 -98)" fill="#fff"/>
    </g>
    <g id="グループ_10516" data-name="グループ 10516" transform="translate(-6604.125 739.875)">
      <path id="パス_10065" data-name="パス 10065" d="M357.75,105.5a3.75,3.75,0,1,1,3.75-3.75,3.75,3.75,0,0,1-3.75,3.75Zm0-3.752Z" transform="translate(-354 -98)" fill="#444"/>
    </g>
    <g id="グループ_10517" data-name="グループ 10517" transform="translate(-6579.75 739.875)">
      <path id="パス_10066" data-name="パス 10066" d="M383.75,105.5a3.75,3.75,0,1,1,3.75-3.75,3.75,3.75,0,0,1-3.75,3.75Zm0-3.752Z" transform="translate(-380 -98)" fill="#444"/>
    </g>
    <g id="グループ_10518" data-name="グループ 10518" transform="translate(-6555.375 739.875)">
      <path id="パス_10067" data-name="パス 10067" d="M409.75,105.5a3.75,3.75,0,1,1,3.75-3.75,3.75,3.75,0,0,1-3.75,3.75Zm0-3.752Z" transform="translate(-406 -98)" fill="#444"/>
    </g>
    <g id="グループ_10519" data-name="グループ 10519" transform="translate(-6531 739.875)">
      <path id="パス_10068" data-name="パス 10068" d="M435.75,105.5a3.75,3.75,0,1,1,3.75-3.75,3.75,3.75,0,0,1-3.75,3.75Zm0-3.752Z" transform="translate(-432 -98)" fill="#fff"/>
    </g>
    <g id="グループ_10508" data-name="グループ 10508" transform="translate(-6628.5 764.25)">
      <path id="パス_10069" data-name="パス 10069" d="M331.75,131.5a3.75,3.75,0,1,1,3.75-3.75A3.75,3.75,0,0,1,331.75,131.5Zm0-3.752Z" transform="translate(-328 -124)" fill="#444"/>
    </g>
    <g id="グループ_10509" data-name="グループ 10509" transform="translate(-6604.125 764.25)">
      <path id="パス_10070" data-name="パス 10070" d="M357.75,131.5a3.75,3.75,0,1,1,3.75-3.75,3.75,3.75,0,0,1-3.75,3.75Zm0-3.752Z" transform="translate(-354 -124)" fill="#444"/>
    </g>
    <g id="グループ_10510" data-name="グループ 10510" transform="translate(-6579.75 764.25)">
      <path id="パス_10071" data-name="パス 10071" d="M383.75,131.5a3.75,3.75,0,1,1,3.75-3.75,3.75,3.75,0,0,1-3.75,3.75Zm0-3.752Z" transform="translate(-380 -124)" fill="#fff"/>
    </g>
    <g id="グループ_10511" data-name="グループ 10511" transform="translate(-6555.375 764.25)">
      <path id="パス_10072" data-name="パス 10072" d="M409.75,131.5a3.75,3.75,0,1,1,3.75-3.75,3.75,3.75,0,0,1-3.75,3.75Zm0-3.752Z" transform="translate(-406 -124)" fill="#444"/>
    </g>
    <g id="グループ_10512" data-name="グループ 10512" transform="translate(-6531 764.25)">
      <path id="パス_10073" data-name="パス 10073" d="M435.75,131.5a3.75,3.75,0,1,1,3.75-3.75A3.75,3.75,0,0,1,435.75,131.5Zm0-3.752Z" transform="translate(-432 -124)" fill="#444"/>
    </g>
    <g id="グループ_10502" data-name="グループ 10502" transform="translate(-6628.5 788.625)">
      <path id="パス_10074" data-name="パス 10074" d="M331.75,157.5a3.75,3.75,0,1,1,3.75-3.75,3.75,3.75,0,0,1-3.75,3.75Zm0-3.752Z" transform="translate(-328 -150)" fill="#444"/>
    </g>
    <g id="グループ_10503" data-name="グループ 10503" transform="translate(-6604.125 788.625)">
      <path id="パス_10075" data-name="パス 10075" d="M357.75,157.5a3.75,3.75,0,1,1,3.75-3.75,3.75,3.75,0,0,1-3.75,3.75Zm0-3.752Z" transform="translate(-354 -150)" fill="#fff"/>
    </g>
    <g id="グループ_10504" data-name="グループ 10504" transform="translate(-6579.75 788.625)">
      <path id="パス_10076" data-name="パス 10076" d="M383.75,157.5a3.75,3.75,0,1,1,3.75-3.75,3.75,3.75,0,0,1-3.75,3.75Zm0-3.752Z" transform="translate(-380 -150)" fill="#444"/>
    </g>
    <g id="グループ_10505" data-name="グループ 10505" transform="translate(-6555.375 788.625)">
      <path id="パス_10077" data-name="パス 10077" d="M409.75,157.5a3.75,3.75,0,1,1,3.75-3.75,3.75,3.75,0,0,1-3.75,3.75Zm0-3.752Z" transform="translate(-406 -150)" fill="#444"/>
    </g>
    <g id="グループ_10506" data-name="グループ 10506" transform="translate(-6531 788.625)">
      <path id="パス_10078" data-name="パス 10078" d="M435.75,157.5a3.75,3.75,0,1,1,3.75-3.75,3.75,3.75,0,0,1-3.75,3.75Zm0-3.752Z" transform="translate(-432 -150)" fill="#fff"/>
    </g>
    <g id="グループ_10495" data-name="グループ 10495" transform="translate(-6628.5 813)">
      <path id="パス_10079" data-name="パス 10079" d="M331.75,183.5a3.75,3.75,0,1,1,3.75-3.75,3.75,3.75,0,0,1-3.75,3.75Zm0-3.752Z" transform="translate(-328 -176)" fill="#444"/>
    </g>
    <g id="グループ_10496" data-name="グループ 10496" transform="translate(-6604.125 813)">
      <path id="パス_10080" data-name="パス 10080" d="M357.75,183.5a3.75,3.75,0,1,1,3.75-3.75,3.75,3.75,0,0,1-3.75,3.75Zm0-3.752Z" transform="translate(-354 -176)" fill="#444"/>
    </g>
    <g id="グループ_10497" data-name="グループ 10497" transform="translate(-6579.75 813)">
      <path id="パス_10081" data-name="パス 10081" d="M383.75,183.5a3.75,3.75,0,1,1,3.75-3.75,3.75,3.75,0,0,1-3.75,3.75Zm0-3.752Z" transform="translate(-380 -176)" fill="#fff"/>
    </g>
    <g id="グループ_10498" data-name="グループ 10498" transform="translate(-6555.375 813)">
      <path id="パス_10082" data-name="パス 10082" d="M409.75,183.5a3.75,3.75,0,1,1,3.75-3.75,3.75,3.75,0,0,1-3.75,3.75Zm0-3.752Z" transform="translate(-406 -176)" fill="#444"/>
    </g>
    <g id="グループ_10499" data-name="グループ 10499" transform="translate(-6531 813)">
      <path id="パス_10083" data-name="パス 10083" d="M435.75,183.5a3.75,3.75,0,1,1,3.75-3.75,3.75,3.75,0,0,1-3.75,3.75Zm0-3.752Z" transform="translate(-432 -176)" fill="#444"/>
    </g>
  </g>
</svg>
