<svg xmlns="http://www.w3.org/2000/svg" width="64.997" height="65.001" viewBox="0 0 64.997 65.001">
  <g id="img_guitar" transform="translate(-1380 -296)">
    <path id="パス_18966" data-name="パス 18966" d="M30.834,189.272c-6.18,6.178-17.187,5.189-24.588-2.209C-.913,179.906-2.28,168.8,4.04,162.479c5.42-5.418,9.826-2.219,15.535-7.926,2.658-2.658,2.391-4.035,4.523-6.166,4.035-4.034,10.777-2.445,17.029,3.806s7.32,13.509,3.806,17.022c-2.068,2.067-3.47,1.883-6.143,4.555C33.049,179.508,36.238,183.87,30.834,189.272Z" transform="translate(1380 167.673)" fill="#fcbf18"/>
    <path id="パス_18967" data-name="パス 18967" d="M143.093,152.2c-3.895-3.894-7.979-5.978-11.481-6.022a22.3,22.3,0,0,1,7.654,5.248c6.253,6.251,7.32,13.509,3.806,17.022-2.068,2.067-3.47,1.883-6.143,4.555-5.741,5.739-2.552,10.1-7.956,15.5a14.618,14.618,0,0,1-11.917,3.978c5.747,1.786,11.753.787,15.744-3.2,5.4-5.4,2.215-9.763,7.956-15.5,2.673-2.672,4.075-2.487,6.143-4.555C150.413,165.71,149.346,158.452,143.093,152.2Z" transform="translate(1278.034 167.665)" fill="#eea20b"/>
    <path id="パス_18968" data-name="パス 18968" d="M87.511,347.323l-9.1-9.093a.516.516,0,0,1,0-.729l2.62-2.62a.516.516,0,0,1,.729,0l9.1,9.093a.516.516,0,0,1,0,.729l-2.62,2.62A.516.516,0,0,1,87.511,347.323Z" transform="translate(1311.825 3.42)" fill="#7f523e"/>
    <path id="パス_18969" data-name="パス 18969" d="M133.693,393.5l-2.414-2.411,3.349-3.349,2.413,2.411a.516.516,0,0,1,0,.729l-2.62,2.62A.516.516,0,0,1,133.693,393.5Z" transform="translate(1265.644 -42.761)" fill="#4c3125"/>
    <path id="合体_136" data-name="合体 136" d="M-95.893,231.641l-8.857-8.857a.853.853,0,0,1,0-1.205.852.852,0,0,1,1.2,0l8.857,8.857a.852.852,0,0,1,0,1.205.85.85,0,0,1-.6.25A.852.852,0,0,1-95.893,231.641Zm2.165-2.165-8.857-8.857a.852.852,0,0,1,0-1.205.852.852,0,0,1,1.2,0l8.857,8.857a.854.854,0,0,1,0,1.206.852.852,0,0,1-.6.249A.849.849,0,0,1-93.728,229.476Zm2.165-2.165-8.857-8.857a.852.852,0,0,1,0-1.205.851.851,0,0,1,1.2,0l8.857,8.857a.852.852,0,0,1,0,1.205.849.849,0,0,1-.6.249A.846.846,0,0,1-91.564,227.312Z" transform="translate(1535.106 79)" fill="#4c3125"/>
    <path id="パス_18973" data-name="パス 18973" d="M236.76,76.564l-25.591,25.582-2.781-2.781L206.7,97.681,232.294,72.1Z" transform="translate(1199.943 232.196)" fill="#4c3125"/>
    <g id="グループ_10673" data-name="グループ 10673" transform="translate(1413.463 309.853)">
      <rect id="長方形_9966" data-name="長方形 9966" width="6.315" height="1.934" transform="translate(16.314 5.833) rotate(-135)" fill="#fcbf18"/>
      <rect id="長方形_9967" data-name="長方形 9967" width="6.315" height="1.934" transform="translate(12.364 9.781) rotate(-135)" fill="#fcbf18"/>
      <rect id="長方形_9968" data-name="長方形 9968" width="6.315" height="1.934" transform="translate(8.415 13.732) rotate(-135)" fill="#fcbf18"/>
      <rect id="長方形_9969" data-name="長方形 9969" width="6.315" height="1.934" transform="translate(4.465 17.679) rotate(-135)" fill="#fcbf18"/>
    </g>
    <path id="パス_18974" data-name="パス 18974" d="M404.015,20.093l-6.74,8.2a.63.63,0,0,1-.934.046l-2.76-2.76h0l-2.956-2.955a.633.633,0,0,1,.042-.933l8.16-6.781a.633.633,0,0,1,.851.039l1.543,1.543,2.755,2.753A.631.631,0,0,1,404.015,20.093Z" transform="translate(1039.892 282.138)" fill="#fcbf18"/>
    <path id="パス_18975" data-name="パス 18975" d="M425.251,31.767l-6.74,8.2a.63.63,0,0,1-.934.046l-2.76-2.76a.631.631,0,0,0,.934-.044l6.74-8.2a.629.629,0,0,0-.037-.841l2.755,2.753A.631.631,0,0,1,425.251,31.767Z" transform="translate(1018.656 270.465)" fill="#eea20b"/>
    <path id="パス_18976" data-name="パス 18976" d="M6.543,0A6.543,6.543,0,1,1,0,6.543,6.543,6.543,0,0,1,6.543,0Z" transform="translate(1403.151 326.62) rotate(31)" fill="#332119"/>
  </g>
</svg>
