<svg xmlns="http://www.w3.org/2000/svg" width="45.723" height="31.31" viewBox="0 0 45.723 31.31">
  <g id="グループ_9629" data-name="グループ 9629" transform="translate(-1274.4 -237.83)">
    <g id="グループ_9628" data-name="グループ 9628">
      <path id="パス_16860" data-name="パス 16860" d="M1290.393,242.135c0,2.377-1.927,5.511-4.3,5.511s-4.3-3.134-4.3-5.511a4.3,4.3,0,1,1,8.609,0Z" fill="#d82619"/>
      <path id="パス_16861" data-name="パス 16861" d="M1301.566,242.135c0,2.377-1.927,5.511-4.3,5.511s-4.3-3.134-4.3-5.511a4.3,4.3,0,1,1,8.609,0Z" fill="#d82619"/>
      <path id="パス_16862" data-name="パス 16862" d="M1312.739,242.135c0,2.377-1.927,5.511-4.3,5.511s-4.305-3.134-4.305-5.511a4.3,4.3,0,1,1,8.609,0Z" fill="#d82619"/>
      <rect id="長方形_9164" data-name="長方形 9164" width="43.817" height="10.723" transform="translate(1275.353 249.892)" fill="#fcbf18"/>
      <rect id="長方形_9165" data-name="長方形 9165" width="43.817" height="5.106" transform="translate(1275.353 257.722)" fill="#fff"/>
      <rect id="長方形_9166" data-name="長方形 9166" width="43.817" height="6.312" transform="translate(1275.353 262.828)" fill="#fcbf18"/>
      <circle id="楕円形_1531" data-name="楕円形 1531" cx="6.102" cy="6.102" r="6.102" transform="translate(1274.4 242.524)" fill="#fff"/>
      <circle id="楕円形_1532" data-name="楕円形 1532" cx="6.102" cy="6.102" r="6.102" transform="translate(1285.573 242.524)" fill="#fff"/>
      <circle id="楕円形_1533" data-name="楕円形 1533" cx="6.102" cy="6.102" r="6.102" transform="translate(1296.746 242.524)" fill="#fff"/>
      <circle id="楕円形_1534" data-name="楕円形 1534" cx="6.102" cy="6.102" r="6.102" transform="translate(1307.919 242.524)" fill="#fff"/>
    </g>
  </g>
</svg>
