<svg xmlns="http://www.w3.org/2000/svg" width="35.574" height="27.524" viewBox="0 0 35.574 27.524">
  <g id="グループ_9632" data-name="グループ 9632" transform="translate(-961.976 -478.477)">
    <path id="パス_16866" data-name="パス 16866" d="M995.364,479.922l-31.5.36a1.926,1.926,0,0,0-1.892,1.962l.249,21.838A1.927,1.927,0,0,0,964.161,506l31.5-.359a1.929,1.929,0,0,0,1.892-1.964l-.25-21.837A1.927,1.927,0,0,0,995.364,479.922Z" fill="#172a33"/>
    <path id="パス_16867" data-name="パス 16867" d="M988.853,492.857a9.091,9.091,0,1,1-9.2-8.986A9.091,9.091,0,0,1,988.853,492.857Z" fill="#d82619"/>
    <circle id="楕円形_1537" data-name="楕円形 1537" cx="5.682" cy="5.682" r="5.682" transform="translate(974.08 487.279)" fill="#fff"/>
    <rect id="長方形_9171" data-name="長方形 9171" width="3.334" height="2.541" transform="translate(965.597 478.515) rotate(-0.654)" fill="#172a33"/>
  </g>
</svg>
