<svg xmlns="http://www.w3.org/2000/svg" width="41.651" height="38.036" viewBox="0 0 41.651 38.036">
  <g id="img_movie" transform="translate(-1014.515 -1767.001)">
    <g id="グループ_10645" data-name="グループ 10645" transform="translate(1015 1777.594)">
      <path id="パス_18950" data-name="パス 18950" d="M87.2,142.943H52.965a3.465,3.465,0,0,1-3.465-3.465V115.5H90.666v23.978A3.465,3.465,0,0,1,87.2,142.943Z" transform="translate(-49.5 -115.5)" fill="#444"/>
    </g>
    <g id="グループ_10646" data-name="グループ 10646" transform="translate(1015 1777.594)">
      <rect id="長方形_9962" data-name="長方形 9962" width="41.166" height="6.861" transform="translate(0 0)" fill="#333"/>
    </g>
    <g id="グループ_10647" data-name="グループ 10647" transform="translate(1014.515 1767.001)">
      <path id="パス_18951" data-name="パス 18951" d="M88.634,71.213,47.656,75.14l-.483-5.035A1.8,1.8,0,0,1,48.8,68.139l37.389-3.583a1.8,1.8,0,0,1,1.967,1.622Z" transform="translate(-47.165 -64.547)" fill="#333"/>
    </g>
    <g id="グループ_10648" data-name="グループ 10648" transform="translate(1035.652 1777.594)">
      <path id="パス_18952" data-name="パス 18952" d="M148.834,115.5v27.443h17.049a3.465,3.465,0,0,0,3.465-3.465V115.5Z" transform="translate(-148.834 -115.5)" fill="#444"/>
    </g>
    <g id="グループ_10649" data-name="グループ 10649" transform="translate(1035.652 1777.594)">
      <rect id="長方形_9963" data-name="長方形 9963" width="20.514" height="6.861" transform="translate(0 0)" fill="#333"/>
    </g>
    <g id="グループ_10650" data-name="グループ 10650" transform="translate(1035.652 1767.001)">
      <path id="パス_18953" data-name="パス 18953" d="M168.683,66.179a1.8,1.8,0,0,0-1.967-1.622L148.834,66.27v6.892l20.331-1.948Z" transform="translate(-148.834 -64.548)" fill="#333"/>
    </g>
    <g id="グループ_10651" data-name="グループ 10651" transform="translate(1018.431 1777.594)">
      <path id="パス_18954" data-name="パス 18954" d="M69.43,122.361H66l3.43-6.861h3.43Z" transform="translate(-66 -115.5)" fill="#fff"/>
    </g>
    <g id="グループ_10652" data-name="グループ 10652" transform="translate(1025.292 1777.594)">
      <path id="パス_18955" data-name="パス 18955" d="M102.43,122.361H99l3.43-6.861h3.43Z" transform="translate(-99 -115.5)" fill="#fff"/>
    </g>
    <g id="グループ_10653" data-name="グループ 10653" transform="translate(1039.014 1777.594)">
      <path id="パス_18956" data-name="パス 18956" d="M168.43,122.361H165l3.431-6.861h3.43Z" transform="translate(-165 -115.5)" fill="#fff"/>
    </g>
    <g id="グループ_10654" data-name="グループ 10654" transform="translate(1045.874 1777.594)">
      <path id="パス_18957" data-name="パス 18957" d="M201.43,122.361H198l3.43-6.861h3.43Z" transform="translate(-198 -115.5)" fill="#fff"/>
    </g>
    <g id="グループ_10655" data-name="グループ 10655" transform="translate(1018.42 1769.783)">
      <path id="パス_18958" data-name="パス 18958" d="M69.366,85.085l-3.415.327,2.76-7.157,3.415-.327Z" transform="translate(-65.951 -77.928)" fill="#fff"/>
    </g>
    <g id="グループ_10656" data-name="グループ 10656" transform="translate(1025.25 1769.128)">
      <path id="パス_18959" data-name="パス 18959" d="M102.215,81.937l-3.415.327,2.76-7.157,3.415-.327Z" transform="translate(-98.8 -74.78)" fill="#fff"/>
    </g>
    <g id="グループ_10657" data-name="グループ 10657" transform="translate(1038.909 1767.819)">
      <path id="パス_18960" data-name="パス 18960" d="M167.914,75.64l-3.415.327,2.76-7.157,3.415-.327Z" transform="translate(-164.499 -68.483)" fill="#fff"/>
    </g>
    <g id="グループ_10658" data-name="グループ 10658" transform="translate(1045.739 1767.164)">
      <path id="パス_18961" data-name="パス 18961" d="M200.763,72.491l-3.415.327,2.76-7.157,3.415-.327Z" transform="translate(-197.348 -65.334)" fill="#fff"/>
    </g>
    <g id="グループ_10659" data-name="グループ 10659" transform="translate(1032.152 1777.594)">
      <path id="パス_18962" data-name="パス 18962" d="M135.43,122.361H132l3.43-6.861h3.43Z" transform="translate(-132 -115.5)" fill="#fff"/>
    </g>
    <g id="グループ_10660" data-name="グループ 10660" transform="translate(1032.08 1768.474)">
      <path id="パス_18963" data-name="パス 18963" d="M135.064,78.788l-3.415.327,2.76-7.157,3.415-.327Z" transform="translate(-131.649 -71.631)" fill="#fff"/>
    </g>
    <g id="グループ_10661" data-name="グループ 10661" transform="translate(1035.652 1777.594)">
      <path id="パス_18964" data-name="パス 18964" d="M148.834,115.5v6.722L152.2,115.5Z" transform="translate(-148.834 -115.5)" fill="#fff"/>
    </g>
    <g id="グループ_10662" data-name="グループ 10662" transform="translate(1035.652 1768.474)">
      <path id="パス_18965" data-name="パス 18965" d="M148.834,71.88v6.5l2.6-6.747Z" transform="translate(-148.834 -71.631)" fill="#fff"/>
    </g>
    <g id="グループ_10663" data-name="グループ 10663" transform="translate(1021.861 1787.885)">
      <rect id="長方形_9964" data-name="長方形 9964" width="27.444" height="10.291" transform="translate(0 0)" fill="#40abb3"/>
    </g>
    <g id="グループ_10664" data-name="グループ 10664" transform="translate(1035.652 1787.885)">
      <rect id="長方形_9965" data-name="長方形 9965" width="13.653" height="10.291" transform="translate(0 0)" fill="#357e85"/>
    </g>
  </g>
</svg>
