<svg xmlns="http://www.w3.org/2000/svg" width="30.824" height="30.824" viewBox="0 0 30.824 30.824">
  <g id="グループ_9645" data-name="グループ 9645" transform="translate(-1351.418 -205.993)">
    <g id="グループ_9640" data-name="グループ 9640">
      <g id="グループ_9636" data-name="グループ 9636">
        <rect id="長方形_9174" data-name="長方形 9174" width="9.755" height="0.788" transform="matrix(0.668, -0.744, 0.744, 0.668, 1360.018, 228.399)" fill="#fff"/>
        <path id="パス_16885" data-name="パス 16885" d="M1356.3,228.779a2.906,2.906,0,1,1,.22,4.1A2.907,2.907,0,0,1,1356.3,228.779Z" fill="#fff"/>
      </g>
      <g id="グループ_9637" data-name="グループ 9637">
        <rect id="長方形_9175" data-name="長方形 9175" width="0.788" height="9.756" transform="translate(1366.566 221.698) rotate(-48.086)" fill="#fff"/>
        <path id="パス_16886" data-name="パス 16886" d="M1374.2,231.934a2.907,2.907,0,1,1,4.1-.22A2.907,2.907,0,0,1,1374.2,231.934Z" fill="#fff"/>
      </g>
      <g id="グループ_9638" data-name="グループ 9638">
        <rect id="長方形_9176" data-name="長方形 9176" width="9.756" height="0.788" transform="matrix(0.668, -0.744, 0.744, 0.668, 1366.536, 221.141)" fill="#fff"/>
        <path id="パス_16887" data-name="パス 16887" d="M1377.359,214.028a2.906,2.906,0,1,1-.22-4.1A2.907,2.907,0,0,1,1377.359,214.028Z" fill="#fff"/>
      </g>
      <g id="グループ_9639" data-name="グループ 9639">
        <rect id="長方形_9177" data-name="長方形 9177" width="0.788" height="9.756" transform="translate(1359.307 215.179) rotate(-48.086)" fill="#fff"/>
        <path id="パス_16888" data-name="パス 16888" d="M1359.454,210.874a2.907,2.907,0,1,1-4.1.221A2.908,2.908,0,0,1,1359.454,210.874Z" fill="#fff"/>
      </g>
    </g>
    <g id="グループ_9641" data-name="グループ 9641">
      <rect id="長方形_9178" data-name="長方形 9178" width="9.755" height="0.788" transform="translate(1357.067 221.533) rotate(-3.062)" fill="#fff"/>
      <path id="パス_16889" data-name="パス 16889" d="M1354.169,219.173a2.907,2.907,0,1,1-2.747,3.059A2.907,2.907,0,0,1,1354.169,219.173Z" fill="#fff"/>
    </g>
    <g id="グループ_9642" data-name="グループ 9642">
      <rect id="長方形_9179" data-name="長方形 9179" width="0.788" height="9.755" transform="translate(1366.436 221.426) rotate(-3.085)" fill="#fff"/>
      <path id="パス_16890" data-name="パス 16890" d="M1364.6,234.065a2.907,2.907,0,1,1,3.058,2.747A2.908,2.908,0,0,1,1364.6,234.065Z" fill="#fff"/>
    </g>
    <g id="グループ_9643" data-name="グループ 9643">
      <rect id="長方形_9180" data-name="長方形 9180" width="9.756" height="0.788" transform="matrix(0.999, -0.054, 0.054, 0.999, 1366.809, 221.011)" fill="#fff"/>
      <path id="パス_16891" data-name="パス 16891" d="M1379.491,223.635a2.907,2.907,0,1,1,2.746-3.058A2.907,2.907,0,0,1,1379.491,223.635Z" fill="#fff"/>
    </g>
    <g id="グループ_9644" data-name="グループ 9644">
      <rect id="長方形_9181" data-name="長方形 9181" width="0.788" height="9.756" transform="translate(1365.912 211.683) rotate(-3.085)" fill="#fff"/>
      <path id="パス_16892" data-name="パス 16892" d="M1369.06,208.743A2.907,2.907,0,1,1,1366,206,2.905,2.905,0,0,1,1369.06,208.743Z" fill="#fff"/>
    </g>
    <path id="パス_16893" data-name="パス 16893" d="M1366.672,218.472a2.936,2.936,0,1,1-2.774,3.09A2.937,2.937,0,0,1,1366.672,218.472Z" fill="#fff"/>
  </g>
</svg>
