<svg xmlns="http://www.w3.org/2000/svg" width="41.957" height="55.979" viewBox="0 0 41.957 55.979">
  <g id="グループ_9622" data-name="グループ 9622" transform="translate(-946.362 -263.163)">
    <g id="グループ_9621" data-name="グループ 9621">
      <path id="パス_16845" data-name="パス 16845" d="M970.655,266.457H946.362l1.6,52.685h15.263s2.719-35.133,4.115-35.133,4.115,35.133,4.115,35.133h15.264l1.6-52.685Z" fill="#1f3847"/>
    </g>
    <rect id="長方形_9162" data-name="長方形 9162" width="41.957" height="3.293" transform="translate(946.362 263.163)" fill="#172a33"/>
    <path id="パス_16846" data-name="パス 16846" d="M956.691,266.457v1.026a11.478,11.478,0,0,1-9.952,11.372l.038,1.255a11.48,11.48,0,0,0,11.074-11.468v-2.185Z" fill="#172a33"/>
    <path id="パス_16847" data-name="パス 16847" d="M977.99,266.457v1.026a11.478,11.478,0,0,0,9.952,11.372l-.038,1.255a11.48,11.48,0,0,1-11.074-11.468v-2.185Z" fill="#172a33"/>
    <rect id="長方形_9163" data-name="長方形 9163" width="1.201" height="15.152" transform="translate(966.74 266.457)" fill="#172a33"/>
    <circle id="楕円形_1522" data-name="楕円形 1522" cx="1.004" cy="1.004" r="1.004" transform="translate(966.336 263.806)" fill="#1f3847"/>
  </g>
</svg>
