<svg xmlns="http://www.w3.org/2000/svg" width="1800.1" height="797.844" viewBox="0 0 1800.1 797.844">
  <g id="main_map" transform="translate(0 -0.004)">
    <path id="パス_18986" data-name="パス 18986" d="M394.538,291.78c-4-2-14-8-18,6a27.15,27.15,0,0,1-18,16c-14,4-30,8-24,24s22,28,32,30,20-2,28-14,14-30,12-38S398.538,293.78,394.538,291.78Zm56-68s-10,2-10,6,4,10,8,12,8-2,10-6S462.538,217.78,450.538,223.78Zm30,16a23.825,23.825,0,0,0,4,12c4,6,6,12,6,14s6,4,6-6S498.539,225.78,480.538,239.78Zm30-8c2-2,12-2,16-2s14,4,16,6,12,8,18,2,16-14,18-20,2-22,6-26,6-12,4-18,0-12-2-14-6-12-2-14,8,0,10,0,8,0,8-6,2-6,6-6,12-8,10-12-6-6-10-4-16,0-18-4-4-10-6-6a19.93,19.93,0,0,0-2,8l6,8s2,6-4,8-12,0-12,8,4,12,4,12l4,4v4s-12,2-12,6,0,18-2,24-6,12-12,12-8,2-10,6,2,10-6,10-24,2-24,2l-12,6s-6,2-4,6S508.539,233.78,510.539,231.78Z" transform="translate(333.243 106.457)" fill="#459b5a"/>
    <path id="パス_18987" data-name="パス 18987" d="M838.352,302.4l-6,8v4l6,2,8-4c4,0,8-6,4-8S846.352,300.4,838.352,302.4Zm-550,206s-12,2-16,16-14,24-12,32-4,14,8,12,22-14,26-18,12-14,14-22S320.35,500.4,288.35,508.4Zm-264-402c6,4,12-8,14-12s2-8-4-16-10-4-10-4c-8,4-8,12-12,20S18.349,102.4,24.349,106.4Zm36-18c-4,4-6,8-4,14s2,8,8,10,14,0,16-6,4-10,6-16,4-10,0-14-14-12-12-20-4-12-6-14-12,2-12,2a15,15,0,0,0-6,12c0,8-2,10,2,14S64.349,84.4,60.349,88.4Z" transform="translate(11.431 41.836)" fill="#459b5a"/>
    <path id="パス_18988" data-name="パス 18988" d="M817.782,284.883c0,10-4,18,8,16s18-14,24-34,26-90,34-96,10-10,20-8,10,22,18,28,16,6,16-8,0-40,8-44,34-10,42-18,6-18-6-24-32-12-44-20-26-10-40-10a136.026,136.026,0,0,1-27-3s-14-30-18-38-16-18-30-14-108,18-134,16-34-16-46-12-58,30-96,32-140,6-142-14l4-4s12,2,10-4-16-26-50-22-56,20-64,22-46,6-62,14-24,16-20,20,20,4,20,12-4,18,8,22c0,0,21,5,29-1s12-12,16-28,26-24,32-24,10,2,10,8-18,8-18,12,2,8,10,10,22,0,22,10-20,14-20,14-48,14-56,16-22,6-30,4-2-12-12-18-8,14-8,14-2,6-12,8-50,12-56,12-30,2-30,8-4,20-16,24-20,10-30,8-10,4-4,8,20,0,22,8,4,18-4,20-22,4-30,2-20-4-20,4-2,16,0,22,0,14,10,16,42,6,56-16,20-30,32-26,22,8,28,16,6,24,18,22,14-8,8-14-12-20-6-20,14-2,14,6,6,14,8,16-4,12,2,18,16,10,18,0,14-14,16-14,14-4,16-8,10-6,12-6,6-2,10,6,14,6,18,6,10,0,10,8,0,16-8,18-20,6-28,0-16-8-22-8-10,10-10,12,2,6,8,10,14,8,10,18-16,12-32,10-18-8-24-12-16,4-16,6-8,2-12-6-12-16-16-16-12-6-12-12,0-16-14-12-20,6-38,8-32,2-44,12-24,18-24,26,6,26-4,34-16,30-22,36-14,18,0,32,16,20,36,24,50,8,58,12,22,4,18,12-14,10-12,18,10,12,14,22,0,18,2,30,12,20,10,28a52.4,52.4,0,0,0,2,30c4,10,20,26,20,36s-2,20,8,18,18-10,30-12,26-22,30-32,12-36,22-40,24-14,26-34-6-32-2-42,18-12,32-28,20-34,28-42,18-22,4-20-26,4-40,0-32-28-34-38-4-20,4-14,18,28,32,34,30,12,36,8,26-22,32-32,8-20,0-22-22-2-18-12,10-6,16-4,24,12,36,16,20,10,28,14,18-4,22,8,10,40,12,56,8,32,18,34,16,0,18-14,8-22,20-26,14-10,16-20,6-30,24-30,54,2,60,14,4,32-8,48-26,24-18,42,22,34,22,44,2,18,8,24,20,12,36,14,38-4,54,10,28,26,36,28,24,6,26-10-10-24-24-28-50-8-74-12-48-18-50-32,6-32,10-38,6-12,8-28,4-38,26-44,32-4,48-16,30-36,42-38,22,0,26-10,12-40,22-38S817.782,274.883,817.782,284.883Zm-434-38c4,6-2,12-8,22s-16,0-18-6-4-14-6-20,2-14,6-18,18-4,18-4c14,2,10,10,8,14S379.781,240.883,383.781,246.883Zm664,374c-16,0-32-24-36-32s-10-16-20-14-16,16-24,16-24,8-40-14-24-34-52-28c0,0-20,6-32,28s-12,34-10,46,12,28,14,36,6,30,16,32,28-4,40-8,26-10,40-2,28,28,40,34,16,12,28,8,46-30,54-44,24-34,16-50S1063.783,620.884,1047.783,620.884Zm8-88c-8-8-22-20-30-14,0,0-8,10-4,14s4,10,12,16,16,6,24,8,14,6,22,8,12,4,10-4S1063.783,540.884,1055.783,532.884Zm86,88-18,22s-16,12-16,16,0,8,6,12,4,12,16,8,22-14,24-26,6-26,0-32S1141.783,620.884,1141.783,620.884Zm-58-324s-6,8-10,10-4,6,2,8,16,2,22,2,6,2,8,0-2-8-6-12S1091.783,288.883,1083.783,296.883Zm482-112c-6-4-6-4-20-4s-20-10-26-14-10-12-16,0,0,28-24,24-24-26-26-32,6-8,10-10,20-10,26-24,22-20,28-16,8,10,8,16-6,14,0,22,12,10,20,6,14-8,18-26,4-26-6-32-26-8-34-12-14-16-22-14-14,4-14,10-4,24-8,26-26,8-38,8-28-4-48-14-30-12-40-8-64,2-74,4-28,8-42,8-40,0-66-6-44-10-58-6-36,8-42,10-28,14-14,18c0,0,14,2,22,12s8,24,22,24,28-8,36-8,8-6,26,4,46,36,48,48,6,22,4,30-4,20,4,28,24,18,26,24,4,6,6,20,2,24,20,32,34,2,46,10,30,26,36,36,12,12,6,24-30,24-32,30-16,6-8,22,14,24,10,34-10,10-10,22,6,28-2,40-20,28-22,38-16,26-8,52,12,36,16,46-2,16,10,34,18,34,24,44,8,24,18,28,20,0,20-6-6-24,0-34,4-38,10-44,18-26,30-34a251.438,251.438,0,0,0,32-26c6-6,16-28,18-34s-2-16,10-20,20-2,40-24,30-34,34-44,6-30-4-38-34-4-42-16-2-32-12-36-36-8-40-22-6-14-16-18-36-10-36-22-2-28,8-32,18-8,28-4,18,10,24,8,10-12,4-18-4-14,2-12,26,0,36-10,20-38,28-38,28,2,30-8-2-30-2-44,14-28,8-32Z" transform="translate(0 3.353)" fill="#459b5a"/>
    <path id="パス_18989" data-name="パス 18989" d="M704.89,84.236c6,4,12,14,18,14s14-8,24-6,22,4,22-6,10-24-6-24-22,6-28,0-16-8-26-6a48.263,48.263,0,0,0-16,6S698.89,80.236,704.89,84.236Zm196-56c2-6-8-10-14-12s-36-12-48-12-28-8-38-2c0,0-8,6,0,14s22,4,26,14,0,18,0,22-4,14,6,14,28,0,30-8,2-24,12-24,24,0,26-6Zm206,22c-2-10-4-22-14-18s-34,8-46,4-32-14-44-14-24,4-32,6-44-4-56,2l-16,14s-14,8-6,12,22,8,26,16,6,26,8,40,6,26,16,40,4,16,20,18,24-8,26-16,14-28,36-36,44-12,52-16,16-16,20-26,12-16,10-26Z" transform="translate(692.893)" fill="#459b5a"/>
  </g>
</svg>
