<svg xmlns="http://www.w3.org/2000/svg" width="31.447" height="31.447" viewBox="0 0 31.447 31.447">
  <g id="グループ_9625" data-name="グループ 9625" transform="translate(-1369.332 -373.237)">
    <path id="パス_16852" data-name="パス 16852" d="M1397.319,376.694h0c-7.456-7.455-11.7-1.385-12.849,4.436a15.923,15.923,0,0,0,.584,7.83,15.918,15.918,0,0,0,7.831.584C1398.706,388.395,1404.775,384.149,1397.319,376.694Z" fill="#fff"/>
    <path id="パス_16853" data-name="パス 16853" d="M1372.789,376.7h0c-7.454,7.456-1.385,11.7,4.437,12.848a15.918,15.918,0,0,0,7.831-.584,15.929,15.929,0,0,0,.582-7.831C1384.489,375.309,1380.243,369.24,1372.789,376.7Z" fill="#fff"/>
    <path id="パス_16854" data-name="パス 16854" d="M1372.791,401.227h0c7.456,7.455,11.7,1.385,12.848-4.437a15.905,15.905,0,0,0-.585-7.83,15.909,15.909,0,0,0-7.829-.582C1371.4,389.527,1365.334,393.772,1372.791,401.227Z" fill="#fff"/>
    <path id="パス_16855" data-name="パス 16855" d="M1397.322,401.225h0c7.454-7.457,1.384-11.7-4.437-12.849a15.931,15.931,0,0,0-7.831.584,15.928,15.928,0,0,0-.582,7.83C1385.621,402.611,1389.867,408.681,1397.322,401.225Z" fill="#fff"/>
    <g id="グループ_9624" data-name="グループ 9624">
      <path id="パス_16856" data-name="パス 16856" d="M1387.93,391.837a4.067,4.067,0,1,1,0-5.751A4.067,4.067,0,0,1,1387.93,391.837Z" fill="#fcbf18"/>
    </g>
  </g>
</svg>
