<svg xmlns="http://www.w3.org/2000/svg" width="45.682" height="45.684" viewBox="0 0 45.682 45.684">
  <g id="img_soccer" transform="translate(-940.058 -498.067)">
    <path id="合体_135" data-name="合体 135" d="M22.834,45.684A23.056,23.056,0,0,1,.367,26.989,23.063,23.063,0,0,1,11.424,3.05,22.714,22.714,0,0,1,22.787.035V0A22.908,22.908,0,0,1,35.351,3.735q.834.544,1.623,1.166A23.106,23.106,0,0,1,45.55,25.157h0l-.01.1v.011l-.01.1,0,.017-.01.088,0,.026-.009.082,0,.032-.009.074,0,.04-.009.069-.006.044-.008.062-.007.051-.008.059-.007.053-.007.053-.008.059-.007.049-.009.063-.007.044-.01.066-.007.043-.011.068-.006.038-.012.073-.005.033-.013.079,0,.026-.014.083,0,.028-.015.082,0,.025-.016.086,0,.02-.017.091,0,.015-.018.095,0,.013-.019.1,0,.008-.02.1,0,.009-.021.1v0l-.023.106v0l-.023.105h0a22.244,22.244,0,0,1-.663,2.371l-.037.107a22.3,22.3,0,0,1-1.986,4.236,23.1,23.1,0,0,1-19.6,11.135Z" transform="translate(940.065 498.067)" fill="#e7efef"/>
    <path id="パス_17915" data-name="パス 17915" d="M182.891,171.218l-7.127,5.2,2.744,8.385,8.823-.018,2.709-8.4Z" transform="translate(779.976 342.126)" fill="#333"/>
    <path id="パス_17916" data-name="パス 17916" d="M255.664,184.8l4.424-.009,2.709-8.4-7.147-5.171Z" transform="translate(707.218 342.12)" fill="#333"/>
    <path id="パス_17917" data-name="パス 17917" d="M178.129,7.094l7.6-5.735a23,23,0,0,0-15.265,0l7.6,5.735Z" transform="translate(784.807 498.016)" fill="#333"/>
    <path id="パス_17918" data-name="パス 17918" d="M263.154,1.308A22.413,22.413,0,0,0,255.475,0l.007,7.041,0,0h.072Z" transform="translate(707.377 498.067)" fill="#333"/>
    <path id="パス_17919" data-name="パス 17919" d="M8.132,104.779l-3-9.334-.069-.014A22.94,22.94,0,0,0,.02,110.449Z" transform="translate(940.048 411.151)" fill="#333"/>
    <path id="パス_17920" data-name="パス 17920" d="M429.077,110.09a22.941,22.941,0,0,0-5.072-15.1c-1.22,3.025-2.039,6.278-3.039,9.387Z" transform="translate(556.652 411.549)" fill="#333"/>
    <path id="パス_17921" data-name="パス 17921" d="M321.1,407.83a22.876,22.876,0,0,0,13.069-9.233l-.033-.09-9.921-.062Z" transform="translate(647.605 135.175)" fill="#333"/>
    <path id="パス_17922" data-name="パス 17922" d="M54.249,398.444l-9.921.062-.046.072a22.877,22.877,0,0,0,13.082,9.252Z" transform="translate(899.726 135.175)" fill="#333"/>
  </g>
</svg>
