<svg xmlns="http://www.w3.org/2000/svg" width="38.036" height="38.036" viewBox="0 0 38.036 38.036">
  <g id="グループ_9635" data-name="グループ 9635" transform="translate(-928.481 -203.09)">
    <path id="パス_16876" data-name="パス 16876" d="M940.65,222.107a6.849,6.849,0,1,1,6.849,6.85A6.848,6.848,0,0,1,940.65,222.107Z" fill="#d82619"/>
    <path id="パス_16877" data-name="パス 16877" d="M946.117,233.679a1.384,1.384,0,0,1,1.383-1.384h0a1.381,1.381,0,0,1,1.38,1.385v6.062a1.383,1.383,0,0,1-1.381,1.384h0a1.387,1.387,0,0,1-1.382-1.384Z" fill="#fcbf18"/>
    <path id="パス_16878" data-name="パス 16878" d="M954.7,231.265a1.383,1.383,0,0,1,0-1.953h0a1.381,1.381,0,0,1,1.953,0l4.291,4.29a1.378,1.378,0,0,1,0,1.953h0a1.384,1.384,0,0,1-1.956,0Z" fill="#fcbf18"/>
    <path id="パス_16879" data-name="パス 16879" d="M959.068,223.49a1.384,1.384,0,0,1-1.381-1.383h0a1.386,1.386,0,0,1,1.384-1.384h6.065a1.385,1.385,0,0,1,1.381,1.384h0a1.382,1.382,0,0,1-1.383,1.382Z" fill="#fcbf18"/>
    <path id="パス_16880" data-name="パス 16880" d="M956.656,214.9a1.381,1.381,0,0,1-1.954,0h0a1.38,1.38,0,0,1,0-1.954l4.289-4.291a1.383,1.383,0,0,1,1.955,0h0a1.384,1.384,0,0,1,0,1.957Z" fill="#fcbf18"/>
    <path id="パス_16881" data-name="パス 16881" d="M948.88,210.537a1.384,1.384,0,0,1-1.381,1.385h0a1.387,1.387,0,0,1-1.384-1.385v-6.064a1.385,1.385,0,0,1,1.384-1.383h0a1.382,1.382,0,0,1,1.381,1.383Z" fill="#fcbf18"/>
    <path id="パス_16882" data-name="パス 16882" d="M940.294,212.948a1.383,1.383,0,0,1,0,1.957h0a1.383,1.383,0,0,1-1.954,0l-4.289-4.288a1.382,1.382,0,0,1,0-1.956h0a1.383,1.383,0,0,1,1.954,0Z" fill="#fcbf18"/>
    <path id="パス_16883" data-name="パス 16883" d="M935.929,220.726a1.383,1.383,0,0,1,1.384,1.384h0a1.384,1.384,0,0,1-1.384,1.38l-6.065,0a1.385,1.385,0,0,1-1.383-1.385h0a1.386,1.386,0,0,1,1.384-1.381Z" fill="#fcbf18"/>
    <path id="パス_16884" data-name="パス 16884" d="M938.34,229.313a1.385,1.385,0,0,1,1.957,0h0a1.388,1.388,0,0,1,0,1.956l-4.291,4.287a1.377,1.377,0,0,1-1.954,0h0a1.383,1.383,0,0,1,0-1.954Z" fill="#fcbf18"/>
  </g>
</svg>
