<svg xmlns="http://www.w3.org/2000/svg" width="37.683" height="57.744" viewBox="0 0 37.683 57.744">
  <g id="グループ_9623" data-name="グループ 9623" transform="translate(-1343.416 -273.532)">
    <path id="パス_16848" data-name="パス 16848" d="M1360.35,321.73a1.908,1.908,0,0,0,1.908,1.908h0a1.907,1.907,0,0,0,1.907-1.908v-48.2h-3.815Z" fill="#2e6053"/>
    <path id="パス_16849" data-name="パス 16849" d="M1362.132,280.513c0,2.708-4.19,4.9-9.358,4.9s-9.358-4.9-9.358-4.9,4.19-4.9,9.358-4.9S1362.132,277.807,1362.132,280.513Z" fill="#2e6053"/>
    <path id="パス_16850" data-name="パス 16850" d="M1381.1,289.983s-4.19,4.9-9.358,4.9-9.358-2.194-9.358-4.9,4.19-4.9,9.358-4.9S1381.1,289.983,1381.1,289.983Z" fill="#2e6053"/>
    <path id="パス_16851" data-name="パス 16851" d="M1371.17,331.276h-17.825l-2.674-26.737h23.172Z" fill="#7f523e"/>
  </g>
</svg>
