<svg xmlns="http://www.w3.org/2000/svg" width="40.54" height="40.541" viewBox="0 0 40.54 40.541">
  <g id="グループ_9626" data-name="グループ 9626" transform="translate(-888.616 -396.681)">
    <path id="パス_16857" data-name="パス 16857" d="M912.333,396.979A20.267,20.267,0,1,0,928.858,420.4,20.267,20.267,0,0,0,912.333,396.979Zm-4.411,25.56a5.671,5.671,0,1,1,6.553-4.623A5.671,5.671,0,0,1,907.922,422.539Z" fill="#7f523e"/>
    <path id="パス_16858" data-name="パス 16858" d="M903.3,415.987a5.665,5.665,0,0,1,9.609-3.029l10.357-10.285a20.263,20.263,0,1,0-28.656,28.656l10.285-10.356A5.664,5.664,0,0,1,903.3,415.987Z" fill="#4c3125"/>
    <circle id="楕円形_1523" data-name="楕円形 1523" cx="1.215" cy="1.215" r="1.215" transform="translate(913.834 400.938)" fill="#fff" opacity="0.5"/>
    <circle id="楕円形_1524" data-name="楕円形 1524" cx="1.215" cy="1.215" r="1.215" transform="translate(902.844 401.2)" fill="#fff" opacity="0.5"/>
    <circle id="楕円形_1525" data-name="楕円形 1525" cx="1.215" cy="1.215" r="1.215" transform="translate(907.659 406.347)" fill="#fff" opacity="0.5"/>
    <circle id="楕円形_1526" data-name="楕円形 1526" cx="1.215" cy="1.215" r="1.215" transform="translate(895.529 405.178)" fill="#fff" opacity="0.5"/>
    <circle id="楕円形_1527" data-name="楕円形 1527" cx="1.215" cy="1.215" r="1.215" transform="translate(898.738 411.59)" fill="#fff" opacity="0.5"/>
    <circle id="楕円形_1528" data-name="楕円形 1528" cx="1.215" cy="1.215" r="1.215" transform="translate(891.826 415.022)" fill="#fff" opacity="0.5"/>
    <circle id="楕円形_1529" data-name="楕円形 1529" cx="1.215" cy="1.215" r="1.215" transform="translate(898.371 419.081)" fill="#fff" opacity="0.5"/>
    <circle id="楕円形_1530" data-name="楕円形 1530" cx="1.215" cy="1.215" r="1.215" transform="translate(893.301 423.447)" fill="#fff" opacity="0.5"/>
  </g>
</svg>
