<svg xmlns="http://www.w3.org/2000/svg" width="74.702" height="65.937" viewBox="0 0 74.702 65.937">
  <g id="グループ_10253" data-name="グループ 10253" transform="translate(-904.273 -562.681)">
    <g id="グループ_9618" data-name="グループ 9618" transform="translate(-94.602 -64.194)">
      <path id="パス_16839" data-name="パス 16839" d="M1066.443,684.223c.042-.592.07-1.188.07-1.79,0-15.222-16.189-21.12-30.287-21.12s-30.287,5.9-30.287,21.12c0,.6.029,1.2.07,1.79Z" fill="#fcbf18"/>
      <path id="パス_16840" data-name="パス 16840" d="M1036.226,692.812c20.629,0,37.351-3.811,37.351-11.137h-74.7C998.875,689,1015.6,692.812,1036.226,692.812Z" fill="#dbdcdc"/>
      <path id="パス_16841" data-name="パス 16841" d="M1021.877,663.484a6.441,6.441,0,0,0,.276.919,7.914,7.914,0,0,0,7.426,4.914h4.01c5.239,0,5.069,3.212,7.717,3.212s2.112-2.345,4.67-2.345c4.691,0,3.462,6.029,7.27,6.029s2.194-6.9,5.869-6.9h1.8c-5.96-5.624-15.742-8-24.687-8A46.843,46.843,0,0,0,1021.877,663.484Z" fill="#d82619"/>
    </g>
    <g id="グループ_9661" data-name="グループ 9661" transform="translate(-94.602 -64.194)">
      <path id="パス_16927" data-name="パス 16927" d="M1053.19,626.875h-31.255a2.138,2.138,0,0,0-2.137,2.138v19.351a2.137,2.137,0,0,0,2.137,2.137h13.51l2.118,3.711,2.118-3.711h13.509a2.138,2.138,0,0,0,2.138-2.137V629.013A2.138,2.138,0,0,0,1053.19,626.875Z" fill="#fff"/>
      <path id="パス_16928" data-name="パス 16928" d="M1037.563,634.167a4.225,4.225,0,0,0-6.762,3.972c.421,2.663,2.265,5.656,6.762,7.233,4.5-1.577,6.341-4.57,6.761-7.233A4.224,4.224,0,0,0,1037.563,634.167Z" fill="#ee2676"/>
    </g>
  </g>
</svg>
