<svg xmlns="http://www.w3.org/2000/svg" width="21.599" height="21.598" viewBox="0 0 21.599 21.598">
  <g id="グループ_9646" data-name="グループ 9646" transform="translate(-893.202 -637.981)">
    <path id="パス_16894" data-name="パス 16894" d="M913.786,638.994a3.46,3.46,0,0,0-4.893,0l-7.339,7.339-7.34,7.34a3.46,3.46,0,1,0,4.9,4.892l7.338-7.339,7.34-7.34A3.459,3.459,0,0,0,913.786,638.994Zm-18.242,18.242a1.58,1.58,0,1,1,2.235,0A1.58,1.58,0,0,1,895.544,657.236Zm16.912-16.913a1.58,1.58,0,1,1-2.234,0A1.58,1.58,0,0,1,912.456,640.323Z" fill="#fff"/>
    <path id="パス_16895" data-name="パス 16895" d="M894.215,643.887l7.34,7.34,7.339,7.338a3.46,3.46,0,1,0,4.894-4.892l-7.34-7.34-7.34-7.339a3.46,3.46,0,0,0-4.893,4.893Zm16.008,13.348a1.58,1.58,0,1,1,2.235,0A1.58,1.58,0,0,1,910.223,657.235ZM897.78,640.324a1.58,1.58,0,1,1-2.235,0A1.58,1.58,0,0,1,897.78,640.324Z" fill="#fff"/>
  </g>
</svg>
