<svg xmlns="http://www.w3.org/2000/svg" width="54.669" height="26.096" viewBox="0 0 54.669 26.096">
  <g id="グループ_9660" data-name="グループ 9660" transform="translate(-1306.207 -631.132)">
    <path id="パス_16921" data-name="パス 16921" d="M1307.134,657.228h52.817a.925.925,0,0,0,.925-.924l0-3.005h-54.666l0,3.005A.924.924,0,0,0,1307.134,657.228Z" fill="#dbdcdc"/>
    <g id="グループ_9659" data-name="グループ 9659">
      <path id="パス_16922" data-name="パス 16922" d="M1360.873,637.27s-2.9,1.487-9.88,1.487c-7.1,0-10.272-7.625-10.272-7.625l-25.915,9.188V653.3h46.067Z" fill="#fff"/>
      <path id="パス_16923" data-name="パス 16923" d="M1311.741,641a8.614,8.614,0,0,0-5.534,8.044V653.3h8.6V640.32Z" fill="#dbdcdc"/>
    </g>
    <path id="パス_16924" data-name="パス 16924" d="M1325.1,643.828l-2.167-6.456a1.126,1.126,0,0,1,.706-1.423h0a1.125,1.125,0,0,1,1.427.708l2.167,6.456a1.126,1.126,0,0,1-.706,1.423h0A1.125,1.125,0,0,1,1325.1,643.828Z" fill="#357e85"/>
    <path id="パス_16925" data-name="パス 16925" d="M1330.182,641.966l-2.167-6.456a1.125,1.125,0,0,1,.706-1.424h0a1.126,1.126,0,0,1,1.427.708l2.166,6.456a1.123,1.123,0,0,1-.7,1.423h0A1.124,1.124,0,0,1,1330.182,641.966Z" fill="#357e85"/>
    <path id="パス_16926" data-name="パス 16926" d="M1335.266,640.1l-2.166-6.456a1.124,1.124,0,0,1,.705-1.423h0a1.124,1.124,0,0,1,1.427.708l2.167,6.455a1.125,1.125,0,0,1-.706,1.424h0A1.126,1.126,0,0,1,1335.266,640.1Z" fill="#357e85"/>
  </g>
</svg>
